<svg version="1.1" xmlns="http://www.w3.org/2000/svg" xmlns:xlink="http://www.w3.org/1999/xlink" width="1436" height="1669"><defs></defs><g><g transform="translate(-190,-142) scale(1,1)"><rect fill="#C0C0C0" stroke="none" x="743" y="159" width="244" height="136" opacity="0.2"></rect></g><g transform="translate(-190,-142) scale(1,1)"><rect fill="#ffffff" stroke="none" x="736" y="152" width="244" height="136"></rect></g><g transform="translate(-190,-142) scale(1,1)"><path fill="none" stroke="#000000" d="M 736 152 L 980 152 L 980 288 L 736 288 L 736 152 Z Z" stroke-miterlimit="10"></path></g><g transform="translate(-190,-142) scale(1,1)"><path fill="none" stroke="#000000" d="M 736 177 L 980 177" stroke-miterlimit="10"></path></g><g transform="translate(-190,-142) scale(1,1)"><path fill="none" stroke="#000000" d="M 736 187 L 980 187" stroke-miterlimit="10"></path></g><g transform="translate(-190,-142) scale(1,1)"><g><path fill="none" stroke="none"></path><text fill="#000000" stroke="none" font-family="Arial" font-size="13px" font-style="normal" font-weight="bold" text-decoration="none" x="813" y="171.5">AbstractShader</text></g></g><g transform="translate(-190,-142) scale(1,1)"><rect fill="#C0C0C0" stroke="none" x="775" y="415" width="144" height="144" opacity="0.2"></rect></g><g transform="translate(-190,-142) scale(1,1)"><rect fill="#ffffff" stroke="none" x="768" y="408" width="144" height="144"></rect></g><g transform="translate(-190,-142) scale(1,1)"><path fill="none" stroke="#000000" d="M 768 408 L 912 408 L 912 552 L 768 552 L 768 408 Z Z" stroke-miterlimit="10"></path></g><g transform="translate(-190,-142) scale(1,1)"><path fill="none" stroke="#000000" d="M 768 433 L 912 433" stroke-miterlimit="10"></path></g><g transform="translate(-190,-142) scale(1,1)"><path fill="none" stroke="#000000" d="M 768 443 L 912 443" stroke-miterlimit="10"></path></g><g transform="translate(-190,-142) scale(1,1)"><g><path fill="none" stroke="none"></path><text fill="#000000" stroke="none" font-family="Arial" font-size="13px" font-style="normal" font-weight="bold" text-decoration="none" x="797" y="427.5">AbstractScope</text></g></g><g transform="translate(-190,-142) scale(1,1)"><rect fill="#C0C0C0" stroke="none" x="319" y="639" width="527" height="144" opacity="0.2"></rect></g><g transform="translate(-190,-142) scale(1,1)"><rect fill="#ffffff" stroke="none" x="312" y="632" width="527" height="144"></rect></g><g transform="translate(-190,-142) scale(1,1)"><path fill="none" stroke="#000000" d="M 312 632 L 839 632 L 839 776 L 312 776 L 312 632 Z Z" stroke-miterlimit="10"></path></g><g transform="translate(-190,-142) scale(1,1)"><path fill="none" stroke="#000000" d="M 312 657 L 839 657" stroke-miterlimit="10"></path></g><g transform="translate(-190,-142) scale(1,1)"><path fill="none" stroke="#000000" d="M 312 710 L 839 710" stroke-miterlimit="10"></path></g><g transform="translate(-190,-142) scale(1,1)"><g><path fill="none" stroke="none"></path><text fill="#000000" stroke="none" font-family="Arial" font-size="13px" font-style="normal" font-weight="bold" text-decoration="none" x="538.5" y="651.5">GlobalScope</text></g></g><g transform="translate(-190,-142) scale(1,1)"><g><path fill="none" stroke="none"></path><text fill="#000000" stroke="none" font-family="Arial" font-size="13px" font-style="normal" font-weight="normal" text-decoration="none" x="317" y="674.5">+inputs: Map&lt;ShaderInput&gt; {readOnly}</text></g></g><g transform="translate(-190,-142) scale(1,1)"><g><path fill="none" stroke="none"></path><text fill="#000000" stroke="none" font-family="Arial" font-size="13px" font-style="normal" font-weight="normal" text-decoration="none" x="317" y="689.5">+outputs: Map&lt;ShaderOuptut&gt; {readOnly}</text></g></g><g transform="translate(-190,-142) scale(1,1)"><g><path fill="none" stroke="none"></path><text fill="#000000" stroke="none" font-family="Arial" font-size="13px" font-style="normal" font-weight="normal" text-decoration="none" x="317" y="704.5">+functions: ShaderFunction {readOnly}</text></g></g><g transform="translate(-190,-142) scale(1,1)"><g><path fill="none" stroke="none"></path><text fill="#000000" stroke="none" font-family="Arial" font-size="13px" font-style="normal" font-weight="normal" text-decoration="none" x="317" y="727.5">+createInput(name: ShaderInput, type: ShaderEntityType, expression)</text></g></g><g transform="translate(-190,-142) scale(1,1)"><rect fill="#C0C0C0" stroke="none" x="895" y="631" width="248" height="152" opacity="0.2"></rect></g><g transform="translate(-190,-142) scale(1,1)"><rect fill="#ffffff" stroke="none" x="888" y="624" width="248" height="152"></rect></g><g transform="translate(-190,-142) scale(1,1)"><path fill="none" stroke="#000000" d="M 888 624 L 1136 624 L 1136 776 L 888 776 L 888 624 Z Z" stroke-miterlimit="10"></path></g><g transform="translate(-190,-142) scale(1,1)"><path fill="none" stroke="#000000" d="M 888 649 L 1136 649" stroke-miterlimit="10"></path></g><g transform="translate(-190,-142) scale(1,1)"><path fill="none" stroke="#000000" d="M 888 672 L 1136 672" stroke-miterlimit="10"></path></g><g transform="translate(-190,-142) scale(1,1)"><g><path fill="none" stroke="none"></path><text fill="#000000" stroke="none" font-family="Arial" font-size="13px" font-style="normal" font-weight="bold" text-decoration="none" x="978" y="643.5">LocalScope</text></g></g><g transform="translate(-190,-142) scale(1,1)"><g><path fill="none" stroke="none"></path><text fill="#000000" stroke="none" font-family="Arial" font-size="13px" font-style="normal" font-weight="normal" text-decoration="none" x="893" y="666.5">+parent: LocalScope {readOnly}</text></g></g><g transform="translate(-190,-142) scale(1,1)"><g><path fill="none" stroke="none"></path><text fill="#000000" stroke="none" font-family="Arial" font-size="13px" font-style="normal" font-weight="normal" text-decoration="none" x="893" y="689.5">+if(expression: ShaderValuedExpression)</text></g></g><g transform="translate(-190,-142) scale(1,1)"><path fill="none" stroke="#000000" d="M 661 631 L 767 542" stroke-miterlimit="10"></path></g><g transform="translate(-190,-142) scale(1,1)"><path fill="#FFFFFF" stroke="none" d="M 756.8475186583895 561.517354395723 L 767 542 L 746.0202579534405 548.6219652415141"></path></g><g transform="translate(-190,-142) scale(1,1)"><path fill="none" stroke="#000000" d="M 756.8475186583895 561.517354395723 L 767 542 L 746.0202579534405 548.6219652415141 L 756.8475186583895 561.517354395723" stroke-miterlimit="10"></path></g><g transform="translate(-190,-142) scale(1,1)"><path fill="none" stroke="#000000" d="M 952 623 L 897 553" stroke-miterlimit="10"></path></g><g transform="translate(-190,-142) scale(1,1)"><path fill="#FFFFFF" stroke="none" d="M 916.1774811229413 563.7807336382655 L 897 553 L 902.9373970863254 574.1836568098922"></path></g><g transform="translate(-190,-142) scale(1,1)"><path fill="none" stroke="#000000" d="M 916.1774811229413 563.7807336382655 L 897 553 L 902.9373970863254 574.1836568098922 L 916.1774811229413 563.7807336382655" stroke-miterlimit="10"></path></g><g transform="translate(-190,-142) scale(1,1)"><path fill="none" stroke="#000000" d="M 601 631 L 696 360 L 784 360 L 822 289" stroke-miterlimit="10"></path></g><g transform="translate(-190,-142) scale(1,1)"><path fill="#000000" stroke="none" d="M 820.9158521236953 299.94644341246527 L 822 289 L 813.493087318027 295.973696051685 L 811.6187108591884 308.39661918414816"></path></g><g transform="translate(-190,-142) scale(1,1)"><path fill="none" stroke="#000000" d="M 820.9158521236953 299.94644341246527 L 822 289 L 813.493087318027 295.973696051685 L 811.6187108591884 308.39661918414816 L 820.9158521236953 299.94644341246527" stroke-miterlimit="10"></path></g><g transform="translate(-190,-142) scale(1,1)"><rect fill="#C0C0C0" stroke="none" x="479" y="959" width="208" height="152" opacity="0.2"></rect></g><g transform="translate(-190,-142) scale(1,1)"><rect fill="#ffffff" stroke="none" x="472" y="952" width="208" height="152"></rect></g><g transform="translate(-190,-142) scale(1,1)"><path fill="none" stroke="#000000" d="M 472 952 L 680 952 L 680 1104 L 472 1104 L 472 952 Z Z" stroke-miterlimit="10"></path></g><g transform="translate(-190,-142) scale(1,1)"><path fill="none" stroke="#000000" d="M 472 977 L 680 977" stroke-miterlimit="10"></path></g><g transform="translate(-190,-142) scale(1,1)"><path fill="none" stroke="#000000" d="M 472 1000 L 680 1000" stroke-miterlimit="10"></path></g><g transform="translate(-190,-142) scale(1,1)"><g><path fill="none" stroke="none"></path><text fill="#000000" stroke="none" font-family="Arial" font-size="13px" font-style="normal" font-weight="bold" text-decoration="none" x="530.5" y="971.5">ShaderFunction</text></g></g><g transform="translate(-190,-142) scale(1,1)"><g><path fill="none" stroke="none"></path><text fill="#000000" stroke="none" font-family="Arial" font-size="13px" font-style="normal" font-weight="normal" text-decoration="none" x="477" y="994.5">+name: string</text></g></g><g transform="translate(-190,-142) scale(1,1)"><rect fill="#C0C0C0" stroke="none" x="807" y="983" width="184" height="136" opacity="0.2"></rect></g><g transform="translate(-190,-142) scale(1,1)"><rect fill="#ffffff" stroke="none" x="800" y="976" width="184" height="136"></rect></g><g transform="translate(-190,-142) scale(1,1)"><path fill="none" stroke="#000000" d="M 800 976 L 984 976 L 984 1112 L 800 1112 L 800 976 Z Z" stroke-miterlimit="10"></path></g><g transform="translate(-190,-142) scale(1,1)"><path fill="none" stroke="#000000" d="M 800 1001 L 984 1001" stroke-miterlimit="10"></path></g><g transform="translate(-190,-142) scale(1,1)"><path fill="none" stroke="#000000" d="M 800 1011 L 984 1011" stroke-miterlimit="10"></path></g><g transform="translate(-190,-142) scale(1,1)"><g><path fill="none" stroke="none"></path><text fill="#000000" stroke="none" font-family="Arial" font-size="13px" font-style="normal" font-weight="bold" text-decoration="none" x="857.5" y="995.5">ShaderInput</text></g></g><g transform="translate(-190,-142) scale(1,1)"><rect fill="#C0C0C0" stroke="none" x="807" y="1191" width="168" height="120" opacity="0.2"></rect></g><g transform="translate(-190,-142) scale(1,1)"><rect fill="#ffffff" stroke="none" x="800" y="1184" width="168" height="120"></rect></g><g transform="translate(-190,-142) scale(1,1)"><path fill="none" stroke="#000000" d="M 800 1184 L 968 1184 L 968 1304 L 800 1304 L 800 1184 Z Z" stroke-miterlimit="10"></path></g><g transform="translate(-190,-142) scale(1,1)"><path fill="none" stroke="#000000" d="M 800 1209 L 968 1209" stroke-miterlimit="10"></path></g><g transform="translate(-190,-142) scale(1,1)"><path fill="none" stroke="#000000" d="M 800 1232 L 968 1232" stroke-miterlimit="10"></path></g><g transform="translate(-190,-142) scale(1,1)"><g><path fill="none" stroke="none"></path><text fill="#000000" stroke="none" font-family="Arial" font-size="13px" font-style="normal" font-weight="bold" text-decoration="none" x="840" y="1203.5">ShaderVariable</text></g></g><g transform="translate(-190,-142) scale(1,1)"><g><path fill="none" stroke="none"></path><text fill="#000000" stroke="none" font-family="Arial" font-size="13px" font-style="normal" font-weight="normal" text-decoration="none" x="805" y="1226.5">+name: string {readOnly}</text></g></g><g transform="translate(-190,-142) scale(1,1)"><path fill="none" stroke="#000000" d="M 889 1113 L 886 1183" stroke-miterlimit="10"></path></g><g transform="translate(-190,-142) scale(1,1)"><path fill="#FFFFFF" stroke="none" d="M 878.4589731600195 1162.3328058460106 L 886 1183 L 895.2816019187248 1163.0537756499552"></path></g><g transform="translate(-190,-142) scale(1,1)"><path fill="none" stroke="#000000" d="M 878.4589731600195 1162.3328058460106 L 886 1183 L 895.2816019187248 1163.0537756499552 L 878.4589731600195 1162.3328058460106" stroke-miterlimit="10"></path></g><g transform="translate(-190,-142) scale(1,1)"><rect fill="#C0C0C0" stroke="none" x="1063" y="975" width="192" height="144" opacity="0.2"></rect></g><g transform="translate(-190,-142) scale(1,1)"><rect fill="#ffffff" stroke="none" x="1056" y="968" width="192" height="144"></rect></g><g transform="translate(-190,-142) scale(1,1)"><path fill="none" stroke="#000000" d="M 1056 968 L 1248 968 L 1248 1112 L 1056 1112 L 1056 968 Z Z" stroke-miterlimit="10"></path></g><g transform="translate(-190,-142) scale(1,1)"><path fill="none" stroke="#000000" d="M 1056 993 L 1248 993" stroke-miterlimit="10"></path></g><g transform="translate(-190,-142) scale(1,1)"><path fill="none" stroke="#000000" d="M 1056 1003 L 1248 1003" stroke-miterlimit="10"></path></g><g transform="translate(-190,-142) scale(1,1)"><g><path fill="none" stroke="none"></path><text fill="#000000" stroke="none" font-family="Arial" font-size="13px" font-style="normal" font-weight="bold" text-decoration="none" x="1112" y="987.5">ShaderOuptut</text></g></g><g transform="translate(-190,-142) scale(1,1)"><path fill="none" stroke="#000000" d="M 1056 1113 L 964 1183" stroke-miterlimit="10"></path></g><g transform="translate(-190,-142) scale(1,1)"><path fill="#FFFFFF" stroke="none" d="M 975.0775867104486 1163.9924469572622 L 964 1183 L 985.2734063324231 1177.3926670318572"></path></g><g transform="translate(-190,-142) scale(1,1)"><path fill="none" stroke="#000000" d="M 975.0775867104486 1163.9924469572622 L 964 1183 L 985.2734063324231 1177.3926670318572 L 975.0775867104486 1163.9924469572622" stroke-miterlimit="10"></path></g><g transform="translate(-190,-142) scale(1,1)"><rect fill="#C0C0C0" stroke="none" x="431" y="1191" width="174" height="160" opacity="0.2"></rect></g><g transform="translate(-190,-142) scale(1,1)"><rect fill="#ffffff" stroke="none" x="424" y="1184" width="174" height="160"></rect></g><g transform="translate(-190,-142) scale(1,1)"><path fill="none" stroke="#000000" d="M 424 1184 L 598 1184 L 598 1344 L 424 1344 L 424 1184 Z Z" stroke-miterlimit="10"></path></g><g transform="translate(-190,-142) scale(1,1)"><path fill="none" stroke="#000000" d="M 424 1209 L 598 1209" stroke-miterlimit="10"></path></g><g transform="translate(-190,-142) scale(1,1)"><path fill="none" stroke="#000000" d="M 424 1219 L 598 1219" stroke-miterlimit="10"></path></g><g transform="translate(-190,-142) scale(1,1)"><g><path fill="none" stroke="none"></path><text fill="#000000" stroke="none" font-family="Arial" font-size="13px" font-style="normal" font-weight="bold" text-decoration="none" x="459.5" y="1203.5">ShaderEntityType</text></g></g><g transform="translate(-190,-142) scale(1,1)"><rect fill="#C0C0C0" stroke="none" x="207" y="1463" width="275" height="128" opacity="0.2"></rect></g><g transform="translate(-190,-142) scale(1,1)"><rect fill="#ffffff" stroke="none" x="200" y="1456" width="275" height="128"></rect></g><g transform="translate(-190,-142) scale(1,1)"><path fill="none" stroke="#000000" d="M 200 1456 L 475 1456 L 475 1584 L 200 1584 L 200 1456 Z Z" stroke-miterlimit="10"></path></g><g transform="translate(-190,-142) scale(1,1)"><path fill="none" stroke="#000000" d="M 200 1481 L 475 1481" stroke-miterlimit="10"></path></g><g transform="translate(-190,-142) scale(1,1)"><path fill="none" stroke="#000000" d="M 200 1519 L 475 1519" stroke-miterlimit="10"></path></g><g transform="translate(-190,-142) scale(1,1)"><g><path fill="none" stroke="none"></path><text fill="#000000" stroke="none" font-family="Arial" font-size="13px" font-style="normal" font-weight="bold" text-decoration="none" x="278" y="1475.5">ShaderFunctionType</text></g></g><g transform="translate(-190,-142) scale(1,1)"><g><path fill="none" stroke="none"></path><text fill="#000000" stroke="none" font-family="Arial" font-size="13px" font-style="normal" font-weight="normal" text-decoration="none" x="205" y="1498.5">+paramTypes: ShaderEntityType[ ] {readOnly}</text></g></g><g transform="translate(-190,-142) scale(1,1)"><g><path fill="none" stroke="none"></path><text fill="#000000" stroke="none" font-family="Arial" font-size="13px" font-style="normal" font-weight="normal" text-decoration="none" x="205" y="1513.5">+returnType: ShaderEntityType {readOnly}</text></g></g><g transform="translate(-190,-142) scale(1,1)"><path fill="none" stroke="#000000" d="M 381 1455 L 456 1345" stroke-miterlimit="10"></path></g><g transform="translate(-190,-142) scale(1,1)"><path fill="#FFFFFF" stroke="none" d="M 451.5060193717924 1366.536112418756 L 456 1345 L 437.59394469157525 1357.0506069549715"></path></g><g transform="translate(-190,-142) scale(1,1)"><path fill="none" stroke="#000000" d="M 451.5060193717924 1366.536112418756 L 456 1345 L 437.59394469157525 1357.0506069549715 L 451.5060193717924 1366.536112418756" stroke-miterlimit="10"></path></g><g transform="translate(-190,-142) scale(1,1)"><rect fill="#C0C0C0" stroke="none" x="511" y="1503" width="117" height="104" opacity="0.2"></rect></g><g transform="translate(-190,-142) scale(1,1)"><rect fill="#ffffff" stroke="none" x="504" y="1496" width="117" height="104"></rect></g><g transform="translate(-190,-142) scale(1,1)"><path fill="none" stroke="#000000" d="M 504 1496 L 621 1496 L 621 1600 L 504 1600 L 504 1496 Z Z" stroke-miterlimit="10"></path></g><g transform="translate(-190,-142) scale(1,1)"><path fill="none" stroke="#000000" d="M 504 1521 L 621 1521" stroke-miterlimit="10"></path></g><g transform="translate(-190,-142) scale(1,1)"><path fill="none" stroke="#000000" d="M 504 1531 L 621 1531" stroke-miterlimit="10"></path></g><g transform="translate(-190,-142) scale(1,1)"><g><path fill="none" stroke="none"></path><text fill="#000000" stroke="none" font-family="Arial" font-size="13px" font-style="normal" font-weight="bold" text-decoration="none" x="513" y="1515.5">ShaderVec4Type</text></g></g><g transform="translate(-190,-142) scale(1,1)"><path fill="none" stroke="#000000" d="M 552 1495 L 526 1345" stroke-miterlimit="10"></path></g><g transform="translate(-190,-142) scale(1,1)"><path fill="#FFFFFF" stroke="none" d="M 537.7666430966239 1363.588870601429 L 526 1345 L 521.1759566685548 1366.4645895822944"></path></g><g transform="translate(-190,-142) scale(1,1)"><path fill="none" stroke="#000000" d="M 537.7666430966239 1363.588870601429 L 526 1345 L 521.1759566685548 1366.4645895822944 L 537.7666430966239 1363.588870601429" stroke-miterlimit="10"></path></g><g transform="translate(-190,-142) scale(1,1)"><rect fill="#C0C0C0" stroke="none" x="687" y="1463" width="120" height="96" opacity="0.2"></rect></g><g transform="translate(-190,-142) scale(1,1)"><rect fill="#ffffff" stroke="none" x="680" y="1456" width="120" height="96"></rect></g><g transform="translate(-190,-142) scale(1,1)"><path fill="none" stroke="#000000" d="M 680 1456 L 800 1456 L 800 1552 L 680 1552 L 680 1456 Z Z" stroke-miterlimit="10"></path></g><g transform="translate(-190,-142) scale(1,1)"><path fill="none" stroke="#000000" d="M 680 1481 L 800 1481" stroke-miterlimit="10"></path></g><g transform="translate(-190,-142) scale(1,1)"><path fill="none" stroke="#000000" d="M 680 1491 L 800 1491" stroke-miterlimit="10"></path></g><g transform="translate(-190,-142) scale(1,1)"><g><path fill="none" stroke="none"></path><text fill="#000000" stroke="none" font-family="Arial" font-size="13px" font-style="normal" font-weight="bold" text-decoration="none" x="690.5" y="1475.5">ShaderVec3Type</text></g></g><g transform="translate(-190,-142) scale(1,1)"><path fill="none" stroke="#000000" d="M 693 1455 L 588 1345" stroke-miterlimit="10"></path></g><g transform="translate(-190,-142) scale(1,1)"><path fill="#FFFFFF" stroke="none" d="M 608.124117035189 1353.8893145716652 L 588 1345 L 595.9442050072491 1365.5155942346987"></path></g><g transform="translate(-190,-142) scale(1,1)"><path fill="none" stroke="#000000" d="M 608.124117035189 1353.8893145716652 L 588 1345 L 595.9442050072491 1365.5155942346987 L 608.124117035189 1353.8893145716652" stroke-miterlimit="10"></path></g><g transform="translate(-190,-142) scale(1,1)"><rect fill="#C0C0C0" stroke="none" x="815" y="1343" width="116" height="112" opacity="0.2"></rect></g><g transform="translate(-190,-142) scale(1,1)"><rect fill="#ffffff" stroke="none" x="808" y="1336" width="116" height="112"></rect></g><g transform="translate(-190,-142) scale(1,1)"><path fill="none" stroke="#000000" d="M 808 1336 L 924 1336 L 924 1448 L 808 1448 L 808 1336 Z Z" stroke-miterlimit="10"></path></g><g transform="translate(-190,-142) scale(1,1)"><path fill="none" stroke="#000000" d="M 808 1361 L 924 1361" stroke-miterlimit="10"></path></g><g transform="translate(-190,-142) scale(1,1)"><path fill="none" stroke="#000000" d="M 808 1371 L 924 1371" stroke-miterlimit="10"></path></g><g transform="translate(-190,-142) scale(1,1)"><g><path fill="none" stroke="none"></path><text fill="#000000" stroke="none" font-family="Arial" font-size="13px" font-style="normal" font-weight="bold" text-decoration="none" x="817" y="1355.5">ShaderMat4Type</text></g></g><g transform="translate(-190,-142) scale(1,1)"><path fill="none" stroke="#000000" d="M 807 1371 L 599 1296" stroke-miterlimit="10"></path></g><g transform="translate(-190,-142) scale(1,1)"><path fill="#FFFFFF" stroke="none" d="M 620.9760834717051 1294.9744488093477 L 599 1296 L 615.2646118481285 1310.8142634454"></path></g><g transform="translate(-190,-142) scale(1,1)"><path fill="none" stroke="#000000" d="M 620.9760834717051 1294.9744488093477 L 599 1296 L 615.2646118481285 1310.8142634454 L 620.9760834717051 1294.9744488093477" stroke-miterlimit="10"></path></g><g transform="translate(-190,-142) scale(1,1)"><path fill="none" stroke="#000000" d="M 599 1259 L 799 1249" stroke-miterlimit="10"></path></g><g transform="translate(-190,-142) scale(1,1)"><path fill="#000000" stroke="none" d="M 789.0602180019113 1253.7117654685342 L 799 1249 L 788.6397914314744 1245.3032340597965 L 777.0274485446874 1250.0986275727657"></path></g><g transform="translate(-190,-142) scale(1,1)"><path fill="none" stroke="#000000" d="M 789.0602180019113 1253.7117654685342 L 799 1249 L 788.6397914314744 1245.3032340597965 L 777.0274485446874 1250.0986275727657 L 789.0602180019113 1253.7117654685342" stroke-miterlimit="10"></path></g><g transform="translate(-190,-142) scale(1,1)"><path fill="none" stroke="#000000" d="M 678 951 L 910 777" stroke-miterlimit="10"></path></g><g transform="translate(-190,-142) scale(1,1)"><path fill="#FFFFFF" stroke="none" d="M 898.7911415350205 795.9304382387745 L 910 777 L 888.6882989205822 782.4599814195234"></path></g><g transform="translate(-190,-142) scale(1,1)"><path fill="none" stroke="#000000" d="M 898.7911415350205 795.9304382387745 L 910 777 L 888.6882989205822 782.4599814195234 L 898.7911415350205 795.9304382387745" stroke-miterlimit="10"></path></g><g transform="translate(-190,-142) scale(1,1)"><path fill="none" stroke="#000000" d="M 1007 623 L 992 360 L 936 360 L 896 289" stroke-miterlimit="10"></path></g><g transform="translate(-190,-142) scale(1,1)"><path fill="#000000" stroke="none" d="M 904.6558176328211 295.7879909477947 L 896 289 L 897.3207529150634 299.92042177470046 L 906.7985621466971 308.16744781038733"></path></g><g transform="translate(-190,-142) scale(1,1)"><path fill="none" stroke="#000000" d="M 904.6558176328211 295.7879909477947 L 896 289 L 897.3207529150634 299.92042177470046 L 906.7985621466971 308.16744781038733 L 904.6558176328211 295.7879909477947" stroke-miterlimit="10"></path></g><g transform="translate(-190,-142) scale(1,1)"><g><path fill="none" stroke="none"></path><text fill="#000000" stroke="none" font-family="Arial" font-size="13px" font-style="normal" font-weight="normal" text-decoration="none" x="1015.5" y="606.5">*</text></g></g><g transform="translate(-190,-142) scale(1,1)"><rect fill="#C0C0C0" stroke="none" x="1311" y="1463" width="312" height="57" opacity="0.2"></rect></g><g transform="translate(-190,-142) scale(1,1)"><rect fill="#ffffff" stroke="none" x="1304" y="1456" width="312" height="57"></rect></g><g transform="translate(-190,-142) scale(1,1)"><path fill="none" stroke="#000000" d="M 1304 1456 L 1616 1456 L 1616 1513 L 1304 1513 L 1304 1456 Z Z" stroke-miterlimit="10"></path></g><g transform="translate(-190,-142) scale(1,1)"><path fill="none" stroke="#000000" d="M 1304 1481 L 1616 1481" stroke-miterlimit="10"></path></g><g transform="translate(-190,-142) scale(1,1)"><path fill="none" stroke="#000000" d="M 1304 1504 L 1616 1504" stroke-miterlimit="10"></path></g><g transform="translate(-190,-142) scale(1,1)"><g><path fill="none" stroke="none"></path><text fill="#000000" stroke="none" font-family="Arial" font-size="13px" font-style="normal" font-weight="bold" text-decoration="none" x="1403.5" y="1475.5">ShaderFunctionCall</text></g></g><g transform="translate(-190,-142) scale(1,1)"><g><path fill="none" stroke="none"></path><text fill="#000000" stroke="none" font-family="Arial" font-size="13px" font-style="normal" font-weight="normal" text-decoration="none" x="1309" y="1498.5">+parameters: ShaderValuedExpression[ ] {readOnly}</text></g></g><g transform="translate(-190,-142) scale(1,1)"><rect fill="#C0C0C0" stroke="none" x="1023" y="1343" width="169" height="44" opacity="0.2"></rect></g><g transform="translate(-190,-142) scale(1,1)"><rect fill="#ffffff" stroke="none" x="1016" y="1336" width="169" height="44"></rect></g><g transform="translate(-190,-142) scale(1,1)"><path fill="none" stroke="#000000" d="M 1016 1336 L 1185 1336 L 1185 1380 L 1016 1380 L 1016 1336 Z Z" stroke-miterlimit="10"></path></g><g transform="translate(-190,-142) scale(1,1)"><path fill="none" stroke="#000000" d="M 1016 1361 L 1185 1361" stroke-miterlimit="10"></path></g><g transform="translate(-190,-142) scale(1,1)"><path fill="none" stroke="#000000" d="M 1016 1371 L 1185 1371" stroke-miterlimit="10"></path></g><g transform="translate(-190,-142) scale(1,1)"><g><path fill="none" stroke="none"></path><text fill="#000000" stroke="none" font-family="Arial" font-size="13px" font-style="normal" font-weight="bold" text-decoration="none" x="1027.5" y="1355.5">ShaderValuedExpression</text></g></g><g transform="translate(-190,-142) scale(1,1)"><path fill="none" stroke="#000000" d="M 1172 1199 L 985 1095" stroke-miterlimit="10"></path></g><g transform="translate(-190,-142) scale(1,1)"><path fill="#000000" stroke="none" d="M 995.9275276146745 1096.2606110544202 L 985 1095 L 991.8355422529204 1103.618315502959 L 1004.2266082779336 1105.6928730529685"></path></g><g transform="translate(-190,-142) scale(1,1)"><path fill="none" stroke="#000000" d="M 995.9275276146745 1096.2606110544202 L 985 1095 L 991.8355422529204 1103.618315502959 L 1004.2266082779336 1105.6928730529685 L 995.9275276146745 1096.2606110544202" stroke-miterlimit="10"></path></g><g transform="translate(-190,-142) scale(1,1)"><path fill="none" stroke="#000000" d="M 1206 1199 L 1177 1113" stroke-miterlimit="10"></path></g><g transform="translate(-190,-142) scale(1,1)"><path fill="#000000" stroke="none" d="M 1184.2361299112163 1121.2848309522888 L 1177 1113 L 1176.25845638242 1123.9749766771154 L 1184.0296895483577 1133.846665557199"></path></g><g transform="translate(-190,-142) scale(1,1)"><path fill="none" stroke="#000000" d="M 1184.2361299112163 1121.2848309522888 L 1177 1113 L 1176.25845638242 1123.9749766771154 L 1184.0296895483577 1133.846665557199 L 1184.2361299112163 1121.2848309522888" stroke-miterlimit="10"></path></g><g transform="translate(-190,-142) scale(1,1)"><path fill="none" stroke="#000000" d="M 1377 1455 L 1166 1381" stroke-miterlimit="10"></path></g><g transform="translate(-190,-142) scale(1,1)"><path fill="#FFFFFF" stroke="none" d="M 1187.9662587344656 1379.7820192076585 L 1166 1381 L 1182.3937329860585 1395.6712480308192"></path></g><g transform="translate(-190,-142) scale(1,1)"><path fill="none" stroke="#000000" d="M 1187.9662587344656 1379.7820192076585 L 1166 1381 L 1182.3937329860585 1395.6712480308192 L 1187.9662587344656 1379.7820192076585" stroke-miterlimit="10"></path></g><g transform="translate(-190,-142) scale(1,1)"><rect fill="#C0C0C0" stroke="none" x="1287" y="1311" width="200" height="44" opacity="0.2"></rect></g><g transform="translate(-190,-142) scale(1,1)"><rect fill="#ffffff" stroke="none" x="1280" y="1304" width="200" height="44"></rect></g><g transform="translate(-190,-142) scale(1,1)"><path fill="none" stroke="#000000" d="M 1280 1304 L 1480 1304 L 1480 1348 L 1280 1348 L 1280 1304 Z Z" stroke-miterlimit="10"></path></g><g transform="translate(-190,-142) scale(1,1)"><path fill="none" stroke="#000000" d="M 1280 1329 L 1480 1329" stroke-miterlimit="10"></path></g><g transform="translate(-190,-142) scale(1,1)"><path fill="none" stroke="#000000" d="M 1280 1339 L 1480 1339" stroke-miterlimit="10"></path></g><g transform="translate(-190,-142) scale(1,1)"><g><path fill="none" stroke="none"></path><text fill="#000000" stroke="none" font-family="Arial" font-size="13px" font-style="normal" font-weight="bold" text-decoration="none" x="1291.5" y="1323.5">ShaderExpressionEmptyValue</text></g></g><g transform="translate(-190,-142) scale(1,1)"><rect fill="#C0C0C0" stroke="none" x="847" y="1647" width="123" height="44" opacity="0.2"></rect></g><g transform="translate(-190,-142) scale(1,1)"><rect fill="#ffffff" stroke="none" x="840" y="1640" width="123" height="44"></rect></g><g transform="translate(-190,-142) scale(1,1)"><path fill="none" stroke="#000000" d="M 840 1640 L 963 1640 L 963 1684 L 840 1684 L 840 1640 Z Z" stroke-miterlimit="10"></path></g><g transform="translate(-190,-142) scale(1,1)"><path fill="none" stroke="#000000" d="M 840 1665 L 963 1665" stroke-miterlimit="10"></path></g><g transform="translate(-190,-142) scale(1,1)"><path fill="none" stroke="#000000" d="M 840 1675 L 963 1675" stroke-miterlimit="10"></path></g><g transform="translate(-190,-142) scale(1,1)"><g><path fill="none" stroke="none"></path><text fill="#000000" stroke="none" font-family="Arial" font-size="13px" font-style="normal" font-weight="bold" text-decoration="none" x="849.5" y="1659.5">ShaderVec4Value</text></g></g><g transform="translate(-190,-142) scale(1,1)"><rect fill="#C0C0C0" stroke="none" x="1031" y="1615" width="123" height="44" opacity="0.2"></rect></g><g transform="translate(-190,-142) scale(1,1)"><rect fill="#ffffff" stroke="none" x="1024" y="1608" width="123" height="44"></rect></g><g transform="translate(-190,-142) scale(1,1)"><path fill="none" stroke="#000000" d="M 1024 1608 L 1147 1608 L 1147 1652 L 1024 1652 L 1024 1608 Z Z" stroke-miterlimit="10"></path></g><g transform="translate(-190,-142) scale(1,1)"><path fill="none" stroke="#000000" d="M 1024 1633 L 1147 1633" stroke-miterlimit="10"></path></g><g transform="translate(-190,-142) scale(1,1)"><path fill="none" stroke="#000000" d="M 1024 1643 L 1147 1643" stroke-miterlimit="10"></path></g><g transform="translate(-190,-142) scale(1,1)"><g><path fill="none" stroke="none"></path><text fill="#000000" stroke="none" font-family="Arial" font-size="13px" font-style="normal" font-weight="bold" text-decoration="none" x="1033.5" y="1627.5">ShaderVec3Value</text></g></g><g transform="translate(-190,-142) scale(1,1)"><rect fill="#C0C0C0" stroke="none" x="1183" y="1543" width="122" height="44" opacity="0.2"></rect></g><g transform="translate(-190,-142) scale(1,1)"><rect fill="#ffffff" stroke="none" x="1176" y="1536" width="122" height="44"></rect></g><g transform="translate(-190,-142) scale(1,1)"><path fill="none" stroke="#000000" d="M 1176 1536 L 1298 1536 L 1298 1580 L 1176 1580 L 1176 1536 Z Z" stroke-miterlimit="10"></path></g><g transform="translate(-190,-142) scale(1,1)"><path fill="none" stroke="#000000" d="M 1176 1561 L 1298 1561" stroke-miterlimit="10"></path></g><g transform="translate(-190,-142) scale(1,1)"><path fill="none" stroke="#000000" d="M 1176 1571 L 1298 1571" stroke-miterlimit="10"></path></g><g transform="translate(-190,-142) scale(1,1)"><g><path fill="none" stroke="none"></path><text fill="#000000" stroke="none" font-family="Arial" font-size="13px" font-style="normal" font-weight="bold" text-decoration="none" x="1185.5" y="1555.5">ShaderMat4Value</text></g></g><g transform="translate(-190,-142) scale(1,1)"><path fill="none" stroke="#000000" d="M 916 1639 L 1085 1381" stroke-miterlimit="10"></path></g><g transform="translate(-190,-142) scale(1,1)"><path fill="#FFFFFF" stroke="none" d="M 1080.9053920755098 1402.6156005224168 L 1085 1381 L 1066.8201372614724 1393.3892126791131"></path></g><g transform="translate(-190,-142) scale(1,1)"><path fill="none" stroke="#000000" d="M 1080.9053920755098 1402.6156005224168 L 1085 1381 L 1066.8201372614724 1393.3892126791131 L 1080.9053920755098 1402.6156005224168" stroke-miterlimit="10"></path></g><g transform="translate(-190,-142) scale(1,1)"><path fill="none" stroke="#000000" d="M 1086 1607 L 1099 1381" stroke-miterlimit="10"></path></g><g transform="translate(-190,-142) scale(1,1)"><path fill="#FFFFFF" stroke="none" d="M 1106.2379137309383 1401.7752883210678 L 1099 1381 L 1089.427630627857 1400.8083251337223"></path></g><g transform="translate(-190,-142) scale(1,1)"><path fill="none" stroke="#000000" d="M 1106.2379137309383 1401.7752883210678 L 1099 1381 L 1089.427630627857 1400.8083251337223 L 1106.2379137309383 1401.7752883210678" stroke-miterlimit="10"></path></g><g transform="translate(-190,-142) scale(1,1)"><path fill="none" stroke="#000000" d="M 1221 1535 L 1116 1381" stroke-miterlimit="10"></path></g><g transform="translate(-190,-142) scale(1,1)"><path fill="#FFFFFF" stroke="none" d="M 1134.4060553084248 1393.0506069549715 L 1116 1381 L 1120.4939806282077 1402.536112418756"></path></g><g transform="translate(-190,-142) scale(1,1)"><path fill="none" stroke="#000000" d="M 1134.4060553084248 1393.0506069549715 L 1116 1381 L 1120.4939806282077 1402.536112418756 L 1134.4060553084248 1393.0506069549715" stroke-miterlimit="10"></path></g><g transform="translate(-190,-142) scale(1,1)"><path fill="none" stroke="#000000" d="M 969 1289 L 1056 1335" stroke-miterlimit="10"></path></g><g transform="translate(-190,-142) scale(1,1)"><path fill="#FFFFFF" stroke="none" d="M 1034.0964480949328 1332.9422308336377 L 1056 1335 L 1041.966912447507 1318.0567873842042"></path></g><g transform="translate(-190,-142) scale(1,1)"><path fill="none" stroke="#000000" d="M 1034.0964480949328 1332.9422308336377 L 1056 1335 L 1041.966912447507 1318.0567873842042 L 1034.0964480949328 1332.9422308336377" stroke-miterlimit="10"></path></g><g transform="translate(-190,-142) scale(1,1)"><path fill="none" stroke="#000000" d="M 337 1455 L 336 1176 L 471 1093" stroke-miterlimit="10"></path></g><g transform="translate(-190,-142) scale(1,1)"><path fill="#000000" stroke="none" d="M 464.5473875294305 1101.9086358273673 L 471 1093 L 460.1379571610386 1094.7366707703443 L 452.25875214221253 1104.522396831084"></path></g><g transform="translate(-190,-142) scale(1,1)"><path fill="none" stroke="#000000" d="M 464.5473875294305 1101.9086358273673 L 471 1093 L 460.1379571610386 1094.7366707703443 L 452.25875214221253 1104.522396831084 L 464.5473875294305 1101.9086358273673" stroke-miterlimit="10"></path></g><g transform="translate(-190,-142) scale(1,1)"><rect fill="#C0C0C0" stroke="none" x="623" y="1751" width="111" height="57" opacity="0.2"></rect></g><g transform="translate(-190,-142) scale(1,1)"><rect fill="#ffffff" stroke="none" x="616" y="1744" width="111" height="57"></rect></g><g transform="translate(-190,-142) scale(1,1)"><path fill="none" stroke="#000000" d="M 616 1744 L 727 1744 L 727 1801 L 616 1801 L 616 1744 Z Z" stroke-miterlimit="10"></path></g><g transform="translate(-190,-142) scale(1,1)"><path fill="none" stroke="#000000" d="M 616 1769 L 727 1769" stroke-miterlimit="10"></path></g><g transform="translate(-190,-142) scale(1,1)"><path fill="none" stroke="#000000" d="M 616 1779 L 727 1779" stroke-miterlimit="10"></path></g><g transform="translate(-190,-142) scale(1,1)"><g><path fill="none" stroke="none"></path><text fill="#000000" stroke="none" font-family="Arial" font-size="13px" font-style="normal" font-weight="bold" text-decoration="none" x="625.5" y="1763.5">ShaderParsable</text></g></g><g transform="translate(-190,-142) scale(1,1)"><g><path fill="none" stroke="none"></path><text fill="#000000" stroke="none" font-family="Arial" font-size="13px" font-style="normal" font-weight="normal" text-decoration="none" x="621" y="1796.5">+parse()</text></g></g><g transform="translate(-190,-142) scale(1,1)"><path fill="none" stroke="#000000" d="M 506 1345 L 488 1642 L 630 1743" stroke-miterlimit="10"></path></g><g transform="translate(-190,-142) scale(1,1)"><path fill="#FFFFFF" stroke="none" d="M 608.5572279126887 1738.079885650554 L 630 1743 L 618.3167166703312 1724.358624228918"></path></g><g transform="translate(-190,-142) scale(1,1)"><path fill="none" stroke="#000000" d="M 608.5572279126887 1738.079885650554 L 630 1743 L 618.3167166703312 1724.358624228918 L 608.5572279126887 1738.079885650554" stroke-miterlimit="10"></path></g><g transform="translate(-190,-142) scale(1,1)"><path fill="none" stroke="#000000" d="M 1076 1381 L 701 1743" stroke-miterlimit="10"></path></g><g transform="translate(-190,-142) scale(1,1)"><path fill="#FFFFFF" stroke="none" d="M 709.7761907347705 1722.8262924531227 L 701 1743 L 721.4706693896138 1734.9407385734717"></path></g><g transform="translate(-190,-142) scale(1,1)"><path fill="none" stroke="#000000" d="M 709.7761907347705 1722.8262924531227 L 701 1743 L 721.4706693896138 1734.9407385734717 L 709.7761907347705 1722.8262924531227" stroke-miterlimit="10"></path></g><g transform="translate(-190,-142) scale(1,1)"><rect fill="#C0C0C0" stroke="none" x="1159" y="1207" width="124" height="44" opacity="0.2"></rect></g><g transform="translate(-190,-142) scale(1,1)"><rect fill="#ffffff" stroke="none" x="1152" y="1200" width="124" height="44"></rect></g><g transform="translate(-190,-142) scale(1,1)"><path fill="none" stroke="#000000" d="M 1152 1200 L 1276 1200 L 1276 1244 L 1152 1244 L 1152 1200 Z Z" stroke-miterlimit="10"></path></g><g transform="translate(-190,-142) scale(1,1)"><path fill="none" stroke="#000000" d="M 1152 1225 L 1276 1225" stroke-miterlimit="10"></path></g><g transform="translate(-190,-142) scale(1,1)"><path fill="none" stroke="#000000" d="M 1152 1235 L 1276 1235" stroke-miterlimit="10"></path></g><g transform="translate(-190,-142) scale(1,1)"><g><path fill="none" stroke="none"></path><text fill="#000000" stroke="none" font-family="Arial" font-size="13px" font-style="normal" font-weight="bold" text-decoration="none" x="1161" y="1219.5">ShaderExpression</text></g></g><g transform="translate(-190,-142) scale(1,1)"><path fill="none" stroke="#000000" d="M 1119 1335 L 1195 1245" stroke-miterlimit="10"></path></g><g transform="translate(-190,-142) scale(1,1)"><path fill="#FFFFFF" stroke="none" d="M 1188.318869241881 1265.9609754494613 L 1195 1245 L 1175.4540792543412 1255.0973750155388"></path></g><g transform="translate(-190,-142) scale(1,1)"><path fill="none" stroke="#000000" d="M 1188.318869241881 1265.9609754494613 L 1195 1245 L 1175.4540792543412 1255.0973750155388 L 1188.318869241881 1265.9609754494613" stroke-miterlimit="10"></path></g><g transform="translate(-190,-142) scale(1,1)"><path fill="none" stroke="#000000" d="M 1343 1303 L 1251 1245" stroke-miterlimit="10"></path></g><g transform="translate(-190,-142) scale(1,1)"><path fill="#FFFFFF" stroke="none" d="M 1272.6836131183368 1248.7176500822825 L 1251 1245 L 1263.7038542933408 1262.9614054598621"></path></g><g transform="translate(-190,-142) scale(1,1)"><path fill="none" stroke="#000000" d="M 1272.6836131183368 1248.7176500822825 L 1251 1245 L 1263.7038542933408 1262.9614054598621 L 1272.6836131183368 1248.7176500822825" stroke-miterlimit="10"></path></g></g></svg>