<svg version="1.1" xmlns="http://www.w3.org/2000/svg" xmlns:xlink="http://www.w3.org/1999/xlink" width="1445" height="1640"><defs></defs><g><g transform="translate(-198,-142) scale(1,1)"><rect fill="#C0C0C0" stroke="none" x="743" y="159" width="244" height="136" opacity="0.2"></rect></g><g transform="translate(-198,-142) scale(1,1)"><rect fill="#ffffff" stroke="none" x="736" y="152" width="244" height="136"></rect></g><g transform="translate(-198,-142) scale(1,1)"><path fill="none" stroke="#000000" d="M 736 152 L 980 152 L 980 288 L 736 288 L 736 152 Z Z" stroke-miterlimit="10"></path></g><g transform="translate(-198,-142) scale(1,1)"><path fill="none" stroke="#000000" d="M 736 177 L 980 177" stroke-miterlimit="10"></path></g><g transform="translate(-198,-142) scale(1,1)"><path fill="none" stroke="#000000" d="M 736 187 L 980 187" stroke-miterlimit="10"></path></g><g transform="translate(-198,-142) scale(1,1)"><g><path fill="none" stroke="none"></path><text fill="#000000" stroke="none" font-family="Arial" font-size="13px" font-style="normal" font-weight="bold" text-decoration="none" x="813" y="171.5">AbstractShader</text></g></g><g transform="translate(-198,-142) scale(1,1)"><rect fill="#C0C0C0" stroke="none" x="775" y="415" width="144" height="144" opacity="0.2"></rect></g><g transform="translate(-198,-142) scale(1,1)"><rect fill="#ffffff" stroke="none" x="768" y="408" width="144" height="144"></rect></g><g transform="translate(-198,-142) scale(1,1)"><path fill="none" stroke="#000000" d="M 768 408 L 912 408 L 912 552 L 768 552 L 768 408 Z Z" stroke-miterlimit="10"></path></g><g transform="translate(-198,-142) scale(1,1)"><path fill="none" stroke="#000000" d="M 768 433 L 912 433" stroke-miterlimit="10"></path></g><g transform="translate(-198,-142) scale(1,1)"><path fill="none" stroke="#000000" d="M 768 443 L 912 443" stroke-miterlimit="10"></path></g><g transform="translate(-198,-142) scale(1,1)"><g><path fill="none" stroke="none"></path><text fill="#000000" stroke="none" font-family="Arial" font-size="13px" font-style="normal" font-weight="bold" text-decoration="none" x="797" y="427.5">AbstractScope</text></g></g><g transform="translate(-198,-142) scale(1,1)"><rect fill="#C0C0C0" stroke="none" x="319" y="639" width="527" height="130" opacity="0.2"></rect></g><g transform="translate(-198,-142) scale(1,1)"><rect fill="#ffffff" stroke="none" x="312" y="632" width="527" height="130"></rect></g><g transform="translate(-198,-142) scale(1,1)"><path fill="none" stroke="#000000" d="M 312 632 L 839 632 L 839 762 L 312 762 L 312 632 Z Z" stroke-miterlimit="10"></path></g><g transform="translate(-198,-142) scale(1,1)"><path fill="none" stroke="#000000" d="M 312 657 L 839 657" stroke-miterlimit="10"></path></g><g transform="translate(-198,-142) scale(1,1)"><path fill="none" stroke="#000000" d="M 312 710 L 839 710" stroke-miterlimit="10"></path></g><g transform="translate(-198,-142) scale(1,1)"><g><path fill="none" stroke="none"></path><text fill="#000000" stroke="none" font-family="Arial" font-size="13px" font-style="normal" font-weight="bold" text-decoration="none" x="538.5" y="651.5">GlobalScope</text></g></g><g transform="translate(-198,-142) scale(1,1)"><g><path fill="none" stroke="none"></path><text fill="#000000" stroke="none" font-family="Arial" font-size="13px" font-style="normal" font-weight="normal" text-decoration="none" x="317" y="674.5">+inputs: Map&lt;ShaderInput&gt; {readOnly}</text></g></g><g transform="translate(-198,-142) scale(1,1)"><g><path fill="none" stroke="none"></path><text fill="#000000" stroke="none" font-family="Arial" font-size="13px" font-style="normal" font-weight="normal" text-decoration="none" x="317" y="689.5">+outputs: Map&lt;ShaderOuptut&gt; {readOnly}</text></g></g><g transform="translate(-198,-142) scale(1,1)"><g><path fill="none" stroke="none"></path><text fill="#000000" stroke="none" font-family="Arial" font-size="13px" font-style="normal" font-weight="normal" text-decoration="none" x="317" y="704.5">+functions: ShaderFunction {readOnly}</text></g></g><g transform="translate(-198,-142) scale(1,1)"><g><path fill="none" stroke="none"></path><text fill="#000000" stroke="none" font-family="Arial" font-size="13px" font-style="normal" font-weight="normal" text-decoration="none" x="317" y="727.5">+createInput(name: string, type: ShaderType)</text></g></g><g transform="translate(-198,-142) scale(1,1)"><g><path fill="none" stroke="none"></path><text fill="#000000" stroke="none" font-family="Arial" font-size="13px" font-style="normal" font-weight="normal" text-decoration="none" x="317" y="742.5">+createOutput(name: string, type: ShaderType)</text></g></g><g transform="translate(-198,-142) scale(1,1)"><g><path fill="none" stroke="none"></path><text fill="#000000" stroke="none" font-family="Arial" font-size="13px" font-style="normal" font-weight="normal" text-decoration="none" x="317" y="757.5">+createFunction(name: string, retType: ShaderType)</text></g></g><g transform="translate(-198,-142) scale(1,1)"><rect fill="#C0C0C0" stroke="none" x="887" y="631" width="638" height="120" opacity="0.2"></rect></g><g transform="translate(-198,-142) scale(1,1)"><rect fill="#ffffff" stroke="none" x="880" y="624" width="638" height="120"></rect></g><g transform="translate(-198,-142) scale(1,1)"><path fill="none" stroke="#000000" d="M 880 624 L 1518 624 L 1518 744 L 880 744 L 880 624 Z Z" stroke-miterlimit="10"></path></g><g transform="translate(-198,-142) scale(1,1)"><path fill="none" stroke="#000000" d="M 880 649 L 1518 649" stroke-miterlimit="10"></path></g><g transform="translate(-198,-142) scale(1,1)"><path fill="none" stroke="#000000" d="M 880 672 L 1518 672" stroke-miterlimit="10"></path></g><g transform="translate(-198,-142) scale(1,1)"><g><path fill="none" stroke="none"></path><text fill="#000000" stroke="none" font-family="Arial" font-size="13px" font-style="normal" font-weight="bold" text-decoration="none" x="1165" y="643.5">LocalScope</text></g></g><g transform="translate(-198,-142) scale(1,1)"><g><path fill="none" stroke="none"></path><text fill="#000000" stroke="none" font-family="Arial" font-size="13px" font-style="normal" font-weight="normal" text-decoration="none" x="885" y="666.5">+parent: LocalScope {readOnly}</text></g></g><g transform="translate(-198,-142) scale(1,1)"><g><path fill="none" stroke="none"></path><text fill="#000000" stroke="none" font-family="Arial" font-size="13px" font-style="normal" font-weight="normal" text-decoration="none" x="885" y="689.5">+end()</text></g></g><g transform="translate(-198,-142) scale(1,1)"><g><path fill="none" stroke="none"></path><text fill="#000000" stroke="none" font-family="Arial" font-size="13px" font-style="normal" font-weight="normal" text-decoration="none" x="885" y="704.5">+if(expression: ShaderValuedExpression): ShaderIf</text></g></g><g transform="translate(-198,-142) scale(1,1)"><g><path fill="none" stroke="none"></path><text fill="#000000" stroke="none" font-family="Arial" font-size="13px" font-style="normal" font-weight="normal" text-decoration="none" x="885" y="719.5">+for(initExpr: ShaderExpression, condExpr: ShaderExpression, loopExpr: ShaderExpression): ShaderFor</text></g></g><g transform="translate(-198,-142) scale(1,1)"><g><path fill="none" stroke="none"></path><text fill="#000000" stroke="none" font-family="Arial" font-size="13px" font-style="normal" font-weight="normal" text-decoration="none" x="885" y="734.5">+while(condExpr: ShaderValuedExpression): ShaderWhile</text></g></g><g transform="translate(-198,-142) scale(1,1)"><path fill="none" stroke="#000000" d="M 656 631 L 767 540" stroke-miterlimit="10"></path></g><g transform="translate(-198,-142) scale(1,1)"><path fill="#FFFFFF" stroke="none" d="M 756.6193102826608 559.3969399904296 L 767 540 L 745.9440361059746 546.3754517089773"></path></g><g transform="translate(-198,-142) scale(1,1)"><path fill="none" stroke="#000000" d="M 756.6193102826608 559.3969399904296 L 767 540 L 745.9440361059746 546.3754517089773 L 756.6193102826608 559.3969399904296" stroke-miterlimit="10"></path></g><g transform="translate(-198,-142) scale(1,1)"><path fill="none" stroke="#000000" d="M 1092 623 L 913 521" stroke-miterlimit="10"></path></g><g transform="translate(-198,-142) scale(1,1)"><path fill="#FFFFFF" stroke="none" d="M 934.8276816905149 523.7481470152744 L 913 521 L 926.4912683507464 538.3777351311426"></path></g><g transform="translate(-198,-142) scale(1,1)"><path fill="none" stroke="#000000" d="M 934.8276816905149 523.7481470152744 L 913 521 L 926.4912683507464 538.3777351311426 L 934.8276816905149 523.7481470152744" stroke-miterlimit="10"></path></g><g transform="translate(-198,-142) scale(1,1)"><path fill="none" stroke="#000000" d="M 599 631 L 696 360 L 784 360 L 822 289" stroke-miterlimit="10"></path></g><g transform="translate(-198,-142) scale(1,1)"><path fill="#000000" stroke="none" d="M 820.9158521236953 299.94644341246527 L 822 289 L 813.493087318027 295.973696051685 L 811.6187108591884 308.39661918414816"></path></g><g transform="translate(-198,-142) scale(1,1)"><path fill="none" stroke="#000000" d="M 820.9158521236953 299.94644341246527 L 822 289 L 813.493087318027 295.973696051685 L 811.6187108591884 308.39661918414816 L 820.9158521236953 299.94644341246527" stroke-miterlimit="10"></path></g><g transform="translate(-198,-142) scale(1,1)"><rect fill="#C0C0C0" stroke="none" x="615" y="823" width="184" height="64" opacity="0.2"></rect></g><g transform="translate(-198,-142) scale(1,1)"><rect fill="#ffffff" stroke="none" x="608" y="816" width="184" height="64"></rect></g><g transform="translate(-198,-142) scale(1,1)"><path fill="none" stroke="#000000" d="M 608 816 L 792 816 L 792 880 L 608 880 L 608 816 Z Z" stroke-miterlimit="10"></path></g><g transform="translate(-198,-142) scale(1,1)"><path fill="none" stroke="#000000" d="M 608 841 L 792 841" stroke-miterlimit="10"></path></g><g transform="translate(-198,-142) scale(1,1)"><path fill="none" stroke="#000000" d="M 608 864 L 792 864" stroke-miterlimit="10"></path></g><g transform="translate(-198,-142) scale(1,1)"><g><path fill="none" stroke="none"></path><text fill="#000000" stroke="none" font-family="Arial" font-size="13px" font-style="normal" font-weight="bold" text-decoration="none" x="654.5" y="835.5">ShaderFunction</text></g></g><g transform="translate(-198,-142) scale(1,1)"><g><path fill="none" stroke="none"></path><text fill="#000000" stroke="none" font-family="Arial" font-size="13px" font-style="normal" font-weight="normal" text-decoration="none" x="613" y="858.5">+name: string</text></g></g><g transform="translate(-198,-142) scale(1,1)"><rect fill="#C0C0C0" stroke="none" x="823" y="1135" width="184" height="72" opacity="0.2"></rect></g><g transform="translate(-198,-142) scale(1,1)"><rect fill="#ffffff" stroke="none" x="816" y="1128" width="184" height="72"></rect></g><g transform="translate(-198,-142) scale(1,1)"><path fill="none" stroke="#000000" d="M 816 1128 L 1000 1128 L 1000 1200 L 816 1200 L 816 1128 Z Z" stroke-miterlimit="10"></path></g><g transform="translate(-198,-142) scale(1,1)"><path fill="none" stroke="#000000" d="M 816 1153 L 1000 1153" stroke-miterlimit="10"></path></g><g transform="translate(-198,-142) scale(1,1)"><path fill="none" stroke="#000000" d="M 816 1163 L 1000 1163" stroke-miterlimit="10"></path></g><g transform="translate(-198,-142) scale(1,1)"><g><path fill="none" stroke="none"></path><text fill="#000000" stroke="none" font-family="Arial" font-size="13px" font-style="normal" font-weight="bold" text-decoration="none" x="873.5" y="1147.5">ShaderInput</text></g></g><g transform="translate(-198,-142) scale(1,1)"><rect fill="#C0C0C0" stroke="none" x="823" y="1279" width="168" height="120" opacity="0.2"></rect></g><g transform="translate(-198,-142) scale(1,1)"><rect fill="#ffffff" stroke="none" x="816" y="1272" width="168" height="120"></rect></g><g transform="translate(-198,-142) scale(1,1)"><path fill="none" stroke="#000000" d="M 816 1272 L 984 1272 L 984 1392 L 816 1392 L 816 1272 Z Z" stroke-miterlimit="10"></path></g><g transform="translate(-198,-142) scale(1,1)"><path fill="none" stroke="#000000" d="M 816 1297 L 984 1297" stroke-miterlimit="10"></path></g><g transform="translate(-198,-142) scale(1,1)"><path fill="none" stroke="#000000" d="M 816 1320 L 984 1320" stroke-miterlimit="10"></path></g><g transform="translate(-198,-142) scale(1,1)"><g><path fill="none" stroke="none"></path><text fill="#000000" stroke="none" font-family="Arial" font-size="13px" font-style="normal" font-weight="bold" text-decoration="none" x="856" y="1291.5">ShaderVariable</text></g></g><g transform="translate(-198,-142) scale(1,1)"><g><path fill="none" stroke="none"></path><text fill="#000000" stroke="none" font-family="Arial" font-size="13px" font-style="normal" font-weight="normal" text-decoration="none" x="821" y="1314.5">+name: string {readOnly}</text></g></g><g transform="translate(-198,-142) scale(1,1)"><path fill="none" stroke="#000000" d="M 906 1201 L 903 1271" stroke-miterlimit="10"></path></g><g transform="translate(-198,-142) scale(1,1)"><path fill="#FFFFFF" stroke="none" d="M 895.4589731600195 1250.3328058460106 L 903 1271 L 912.2816019187248 1251.0537756499552"></path></g><g transform="translate(-198,-142) scale(1,1)"><path fill="none" stroke="#000000" d="M 895.4589731600195 1250.3328058460106 L 903 1271 L 912.2816019187248 1251.0537756499552 L 895.4589731600195 1250.3328058460106" stroke-miterlimit="10"></path></g><g transform="translate(-198,-142) scale(1,1)"><rect fill="#C0C0C0" stroke="none" x="1071" y="1159" width="192" height="64" opacity="0.2"></rect></g><g transform="translate(-198,-142) scale(1,1)"><rect fill="#ffffff" stroke="none" x="1064" y="1152" width="192" height="64"></rect></g><g transform="translate(-198,-142) scale(1,1)"><path fill="none" stroke="#000000" d="M 1064 1152 L 1256 1152 L 1256 1216 L 1064 1216 L 1064 1152 Z Z" stroke-miterlimit="10"></path></g><g transform="translate(-198,-142) scale(1,1)"><path fill="none" stroke="#000000" d="M 1064 1177 L 1256 1177" stroke-miterlimit="10"></path></g><g transform="translate(-198,-142) scale(1,1)"><path fill="none" stroke="#000000" d="M 1064 1187 L 1256 1187" stroke-miterlimit="10"></path></g><g transform="translate(-198,-142) scale(1,1)"><g><path fill="none" stroke="none"></path><text fill="#000000" stroke="none" font-family="Arial" font-size="13px" font-style="normal" font-weight="bold" text-decoration="none" x="1120" y="1171.5">ShaderOuptut</text></g></g><g transform="translate(-198,-142) scale(1,1)"><path fill="none" stroke="#000000" d="M 1102 1217 L 985 1284" stroke-miterlimit="10"></path></g><g transform="translate(-198,-142) scale(1,1)"><path fill="#FFFFFF" stroke="none" d="M 998.4543266573817 1266.5936478779595 L 985 1284 L 1006.8217952369494 1281.2054959945178"></path></g><g transform="translate(-198,-142) scale(1,1)"><path fill="none" stroke="#000000" d="M 998.4543266573817 1266.5936478779595 L 985 1284 L 1006.8217952369494 1281.2054959945178 L 998.4543266573817 1266.5936478779595" stroke-miterlimit="10"></path></g><g transform="translate(-198,-142) scale(1,1)"><rect fill="#C0C0C0" stroke="none" x="447" y="1359" width="174" height="80" opacity="0.2"></rect></g><g transform="translate(-198,-142) scale(1,1)"><rect fill="#ffffff" stroke="none" x="440" y="1352" width="174" height="80"></rect></g><g transform="translate(-198,-142) scale(1,1)"><path fill="none" stroke="#000000" d="M 440 1352 L 614 1352 L 614 1432 L 440 1432 L 440 1352 Z Z" stroke-miterlimit="10"></path></g><g transform="translate(-198,-142) scale(1,1)"><path fill="none" stroke="#000000" d="M 440 1377 L 614 1377" stroke-miterlimit="10"></path></g><g transform="translate(-198,-142) scale(1,1)"><path fill="none" stroke="#000000" d="M 440 1387 L 614 1387" stroke-miterlimit="10"></path></g><g transform="translate(-198,-142) scale(1,1)"><g><path fill="none" stroke="none"></path><text fill="#000000" stroke="none" font-family="Arial" font-size="13px" font-style="normal" font-weight="bold" text-decoration="none" x="492.5" y="1371.5">ShaderType</text></g></g><g transform="translate(-198,-142) scale(1,1)"><rect fill="#C0C0C0" stroke="none" x="223" y="1551" width="275" height="128" opacity="0.2"></rect></g><g transform="translate(-198,-142) scale(1,1)"><rect fill="#ffffff" stroke="none" x="216" y="1544" width="275" height="128"></rect></g><g transform="translate(-198,-142) scale(1,1)"><path fill="none" stroke="#000000" d="M 216 1544 L 491 1544 L 491 1672 L 216 1672 L 216 1544 Z Z" stroke-miterlimit="10"></path></g><g transform="translate(-198,-142) scale(1,1)"><path fill="none" stroke="#000000" d="M 216 1569 L 491 1569" stroke-miterlimit="10"></path></g><g transform="translate(-198,-142) scale(1,1)"><path fill="none" stroke="#000000" d="M 216 1607 L 491 1607" stroke-miterlimit="10"></path></g><g transform="translate(-198,-142) scale(1,1)"><g><path fill="none" stroke="none"></path><text fill="#000000" stroke="none" font-family="Arial" font-size="13px" font-style="normal" font-weight="bold" text-decoration="none" x="294" y="1563.5">ShaderFunctionType</text></g></g><g transform="translate(-198,-142) scale(1,1)"><g><path fill="none" stroke="none"></path><text fill="#000000" stroke="none" font-family="Arial" font-size="13px" font-style="normal" font-weight="normal" text-decoration="none" x="221" y="1586.5">+paramTypes: ShaderType[ ] {readOnly}</text></g></g><g transform="translate(-198,-142) scale(1,1)"><g><path fill="none" stroke="none"></path><text fill="#000000" stroke="none" font-family="Arial" font-size="13px" font-style="normal" font-weight="normal" text-decoration="none" x="221" y="1601.5">+returnType: ShaderType {readOnly}</text></g></g><g transform="translate(-198,-142) scale(1,1)"><path fill="none" stroke="#000000" d="M 405 1543 L 494 1433" stroke-miterlimit="10"></path></g><g transform="translate(-198,-142) scale(1,1)"><path fill="#FFFFFF" stroke="none" d="M 487.7604962656593 1454.0966488606402 L 494 1433 L 474.6704211285388 1443.505588067879"></path></g><g transform="translate(-198,-142) scale(1,1)"><path fill="none" stroke="#000000" d="M 487.7604962656593 1454.0966488606402 L 494 1433 L 474.6704211285388 1443.505588067879 L 487.7604962656593 1454.0966488606402" stroke-miterlimit="10"></path></g><g transform="translate(-198,-142) scale(1,1)"><rect fill="#C0C0C0" stroke="none" x="527" y="1591" width="117" height="104" opacity="0.2"></rect></g><g transform="translate(-198,-142) scale(1,1)"><rect fill="#ffffff" stroke="none" x="520" y="1584" width="117" height="104"></rect></g><g transform="translate(-198,-142) scale(1,1)"><path fill="none" stroke="#000000" d="M 520 1584 L 637 1584 L 637 1688 L 520 1688 L 520 1584 Z Z" stroke-miterlimit="10"></path></g><g transform="translate(-198,-142) scale(1,1)"><path fill="none" stroke="#000000" d="M 520 1609 L 637 1609" stroke-miterlimit="10"></path></g><g transform="translate(-198,-142) scale(1,1)"><path fill="none" stroke="#000000" d="M 520 1619 L 637 1619" stroke-miterlimit="10"></path></g><g transform="translate(-198,-142) scale(1,1)"><g><path fill="none" stroke="none"></path><text fill="#000000" stroke="none" font-family="Arial" font-size="13px" font-style="normal" font-weight="bold" text-decoration="none" x="529" y="1603.5">ShaderVec4Type</text></g></g><g transform="translate(-198,-142) scale(1,1)"><path fill="none" stroke="#000000" d="M 567 1583 L 536 1433" stroke-miterlimit="10"></path></g><g transform="translate(-198,-142) scale(1,1)"><path fill="#FFFFFF" stroke="none" d="M 548.3584457838656 1451.200791680783 L 536 1433 L 531.8688375982524 1454.608644039143"></path></g><g transform="translate(-198,-142) scale(1,1)"><path fill="none" stroke="#000000" d="M 548.3584457838656 1451.200791680783 L 536 1433 L 531.8688375982524 1454.608644039143 L 548.3584457838656 1451.200791680783" stroke-miterlimit="10"></path></g><g transform="translate(-198,-142) scale(1,1)"><rect fill="#C0C0C0" stroke="none" x="703" y="1551" width="120" height="96" opacity="0.2"></rect></g><g transform="translate(-198,-142) scale(1,1)"><rect fill="#ffffff" stroke="none" x="696" y="1544" width="120" height="96"></rect></g><g transform="translate(-198,-142) scale(1,1)"><path fill="none" stroke="#000000" d="M 696 1544 L 816 1544 L 816 1640 L 696 1640 L 696 1544 Z Z" stroke-miterlimit="10"></path></g><g transform="translate(-198,-142) scale(1,1)"><path fill="none" stroke="#000000" d="M 696 1569 L 816 1569" stroke-miterlimit="10"></path></g><g transform="translate(-198,-142) scale(1,1)"><path fill="none" stroke="#000000" d="M 696 1579 L 816 1579" stroke-miterlimit="10"></path></g><g transform="translate(-198,-142) scale(1,1)"><g><path fill="none" stroke="none"></path><text fill="#000000" stroke="none" font-family="Arial" font-size="13px" font-style="normal" font-weight="bold" text-decoration="none" x="706.5" y="1563.5">ShaderVec3Type</text></g></g><g transform="translate(-198,-142) scale(1,1)"><path fill="none" stroke="#000000" d="M 700 1543 L 574 1433" stroke-miterlimit="10"></path></g><g transform="translate(-198,-142) scale(1,1)"><path fill="#FFFFFF" stroke="none" d="M 594.8482734174873 1440.0249196087707 L 574 1433 L 583.7745872168844 1452.7093238021887"></path></g><g transform="translate(-198,-142) scale(1,1)"><path fill="none" stroke="#000000" d="M 594.8482734174873 1440.0249196087707 L 574 1433 L 583.7745872168844 1452.7093238021887 L 594.8482734174873 1440.0249196087707" stroke-miterlimit="10"></path></g><g transform="translate(-198,-142) scale(1,1)"><rect fill="#C0C0C0" stroke="none" x="831" y="1431" width="116" height="112" opacity="0.2"></rect></g><g transform="translate(-198,-142) scale(1,1)"><rect fill="#ffffff" stroke="none" x="824" y="1424" width="116" height="112"></rect></g><g transform="translate(-198,-142) scale(1,1)"><path fill="none" stroke="#000000" d="M 824 1424 L 940 1424 L 940 1536 L 824 1536 L 824 1424 Z Z" stroke-miterlimit="10"></path></g><g transform="translate(-198,-142) scale(1,1)"><path fill="none" stroke="#000000" d="M 824 1449 L 940 1449" stroke-miterlimit="10"></path></g><g transform="translate(-198,-142) scale(1,1)"><path fill="none" stroke="#000000" d="M 824 1459 L 940 1459" stroke-miterlimit="10"></path></g><g transform="translate(-198,-142) scale(1,1)"><g><path fill="none" stroke="none"></path><text fill="#000000" stroke="none" font-family="Arial" font-size="13px" font-style="normal" font-weight="bold" text-decoration="none" x="833" y="1443.5">ShaderMat4Type</text></g></g><g transform="translate(-198,-142) scale(1,1)"><path fill="none" stroke="#000000" d="M 823 1465 L 615 1414" stroke-miterlimit="10"></path></g><g transform="translate(-198,-142) scale(1,1)"><path fill="#FFFFFF" stroke="none" d="M 636.7455101401143 1410.66341660584 L 615 1414 L 632.7357184244406 1427.0170769364306"></path></g><g transform="translate(-198,-142) scale(1,1)"><path fill="none" stroke="#000000" d="M 636.7455101401143 1410.66341660584 L 615 1414 L 632.7357184244406 1427.0170769364306 L 636.7455101401143 1410.66341660584" stroke-miterlimit="10"></path></g><g transform="translate(-198,-142) scale(1,1)"><path fill="none" stroke="#000000" d="M 615 1378 L 815 1346" stroke-miterlimit="10"></path></g><g transform="translate(-198,-142) scale(1,1)"><path fill="#000000" stroke="none" d="M 805.630025736314 1351.7622549664052 L 815 1346 L 804.2998980969331 1343.4489572202751 L 793.2763060978325 1349.4757910243468"></path></g><g transform="translate(-198,-142) scale(1,1)"><path fill="none" stroke="#000000" d="M 805.630025736314 1351.7622549664052 L 815 1346 L 804.2998980969331 1343.4489572202751 L 793.2763060978325 1349.4757910243468 L 805.630025736314 1351.7622549664052" stroke-miterlimit="10"></path></g><g transform="translate(-198,-142) scale(1,1)"><path fill="none" stroke="#000000" d="M 793 817 L 1013 745" stroke-miterlimit="10"></path></g><g transform="translate(-198,-142) scale(1,1)"><path fill="#FFFFFF" stroke="none" d="M 996.3014948790585 759.32340485799 L 1013 745 L 991.0641970885389 743.320550498069"></path></g><g transform="translate(-198,-142) scale(1,1)"><path fill="none" stroke="#000000" d="M 996.3014948790585 759.32340485799 L 1013 745 L 991.0641970885389 743.320550498069 L 996.3014948790585 759.32340485799" stroke-miterlimit="10"></path></g><g transform="translate(-198,-142) scale(1,1)"><path fill="none" stroke="#000000" d="M 1160 623 L 992 360 L 936 360 L 896 289" stroke-miterlimit="10"></path></g><g transform="translate(-198,-142) scale(1,1)"><path fill="#000000" stroke="none" d="M 904.6558176328211 295.7879909477947 L 896 289 L 897.3207529150634 299.92042177470046 L 906.7985621466971 308.16744781038733"></path></g><g transform="translate(-198,-142) scale(1,1)"><path fill="none" stroke="#000000" d="M 904.6558176328211 295.7879909477947 L 896 289 L 897.3207529150634 299.92042177470046 L 906.7985621466971 308.16744781038733 L 904.6558176328211 295.7879909477947" stroke-miterlimit="10"></path></g><g transform="translate(-198,-142) scale(1,1)"><g><path fill="none" stroke="none"></path><text fill="#000000" stroke="none" font-family="Arial" font-size="13px" font-style="normal" font-weight="normal" text-decoration="none" x="1155.5" y="604.5">*</text></g></g><g transform="translate(-198,-142) scale(1,1)"><rect fill="#C0C0C0" stroke="none" x="1327" y="1551" width="312" height="57" opacity="0.2"></rect></g><g transform="translate(-198,-142) scale(1,1)"><rect fill="#ffffff" stroke="none" x="1320" y="1544" width="312" height="57"></rect></g><g transform="translate(-198,-142) scale(1,1)"><path fill="none" stroke="#000000" d="M 1320 1544 L 1632 1544 L 1632 1601 L 1320 1601 L 1320 1544 Z Z" stroke-miterlimit="10"></path></g><g transform="translate(-198,-142) scale(1,1)"><path fill="none" stroke="#000000" d="M 1320 1569 L 1632 1569" stroke-miterlimit="10"></path></g><g transform="translate(-198,-142) scale(1,1)"><path fill="none" stroke="#000000" d="M 1320 1592 L 1632 1592" stroke-miterlimit="10"></path></g><g transform="translate(-198,-142) scale(1,1)"><g><path fill="none" stroke="none"></path><text fill="#000000" stroke="none" font-family="Arial" font-size="13px" font-style="normal" font-weight="bold" text-decoration="none" x="1419.5" y="1563.5">ShaderFunctionCall</text></g></g><g transform="translate(-198,-142) scale(1,1)"><g><path fill="none" stroke="none"></path><text fill="#000000" stroke="none" font-family="Arial" font-size="13px" font-style="normal" font-weight="normal" text-decoration="none" x="1325" y="1586.5">+parameters: ShaderValuedExpression[ ] {readOnly}</text></g></g><g transform="translate(-198,-142) scale(1,1)"><rect fill="#C0C0C0" stroke="none" x="1079" y="1503" width="169" height="44" opacity="0.2"></rect></g><g transform="translate(-198,-142) scale(1,1)"><rect fill="#ffffff" stroke="none" x="1072" y="1496" width="169" height="44"></rect></g><g transform="translate(-198,-142) scale(1,1)"><path fill="none" stroke="#000000" d="M 1072 1496 L 1241 1496 L 1241 1540 L 1072 1540 L 1072 1496 Z Z" stroke-miterlimit="10"></path></g><g transform="translate(-198,-142) scale(1,1)"><path fill="none" stroke="#000000" d="M 1072 1521 L 1241 1521" stroke-miterlimit="10"></path></g><g transform="translate(-198,-142) scale(1,1)"><path fill="none" stroke="#000000" d="M 1072 1531 L 1241 1531" stroke-miterlimit="10"></path></g><g transform="translate(-198,-142) scale(1,1)"><g><path fill="none" stroke="none"></path><text fill="#000000" stroke="none" font-family="Arial" font-size="13px" font-style="normal" font-weight="bold" text-decoration="none" x="1083.5" y="1515.5">ShaderValuedExpression</text></g></g><g transform="translate(-198,-142) scale(1,1)"><path fill="none" stroke="#000000" d="M 1157 1303 L 974 1201" stroke-miterlimit="10"></path></g><g transform="translate(-198,-142) scale(1,1)"><path fill="#000000" stroke="none" d="M 984.9263417609317 1202.2708484265715 L 974 1201 L 980.8274648124275 1209.6247158930057 L 993.2165817605039 1211.710881637002"></path></g><g transform="translate(-198,-142) scale(1,1)"><path fill="none" stroke="#000000" d="M 984.9263417609317 1202.2708484265715 L 974 1201 L 980.8274648124275 1209.6247158930057 L 993.2165817605039 1211.710881637002 L 984.9263417609317 1202.2708484265715" stroke-miterlimit="10"></path></g><g transform="translate(-198,-142) scale(1,1)"><path fill="none" stroke="#000000" d="M 1192 1303 L 1169 1217" stroke-miterlimit="10"></path></g><g transform="translate(-198,-142) scale(1,1)"><path fill="#000000" stroke="none" d="M 1175.6922435980593 1225.7300558774978 L 1169 1217 L 1167.5590491184237 1227.905212540656 L 1174.6839582777734 1238.2530613864574"></path></g><g transform="translate(-198,-142) scale(1,1)"><path fill="none" stroke="#000000" d="M 1175.6922435980593 1225.7300558774978 L 1169 1217 L 1167.5590491184237 1227.905212540656 L 1174.6839582777734 1238.2530613864574 L 1175.6922435980593 1225.7300558774978" stroke-miterlimit="10"></path></g><g transform="translate(-198,-142) scale(1,1)"><path fill="none" stroke="#000000" d="M 1319 1546 L 1242 1533" stroke-miterlimit="10"></path></g><g transform="translate(-198,-142) scale(1,1)"><path fill="#FFFFFF" stroke="none" d="M 1263.4432833115957 1528.082114192192 L 1242 1533 L 1260.6401614443357 1544.6852206367316"></path></g><g transform="translate(-198,-142) scale(1,1)"><path fill="none" stroke="#000000" d="M 1263.4432833115957 1528.082114192192 L 1242 1533 L 1260.6401614443357 1544.6852206367316 L 1263.4432833115957 1528.082114192192" stroke-miterlimit="10"></path></g><g transform="translate(-198,-142) scale(1,1)"><rect fill="#C0C0C0" stroke="none" x="1303" y="1399" width="200" height="44" opacity="0.2"></rect></g><g transform="translate(-198,-142) scale(1,1)"><rect fill="#ffffff" stroke="none" x="1296" y="1392" width="200" height="44"></rect></g><g transform="translate(-198,-142) scale(1,1)"><path fill="none" stroke="#000000" d="M 1296 1392 L 1496 1392 L 1496 1436 L 1296 1436 L 1296 1392 Z Z" stroke-miterlimit="10"></path></g><g transform="translate(-198,-142) scale(1,1)"><path fill="none" stroke="#000000" d="M 1296 1417 L 1496 1417" stroke-miterlimit="10"></path></g><g transform="translate(-198,-142) scale(1,1)"><path fill="none" stroke="#000000" d="M 1296 1427 L 1496 1427" stroke-miterlimit="10"></path></g><g transform="translate(-198,-142) scale(1,1)"><g><path fill="none" stroke="none"></path><text fill="#000000" stroke="none" font-family="Arial" font-size="13px" font-style="normal" font-weight="bold" text-decoration="none" x="1317" y="1411.5">ShaderUnvaluedExpression</text></g></g><g transform="translate(-198,-142) scale(1,1)"><rect fill="#C0C0C0" stroke="none" x="863" y="1735" width="123" height="44" opacity="0.2"></rect></g><g transform="translate(-198,-142) scale(1,1)"><rect fill="#ffffff" stroke="none" x="856" y="1728" width="123" height="44"></rect></g><g transform="translate(-198,-142) scale(1,1)"><path fill="none" stroke="#000000" d="M 856 1728 L 979 1728 L 979 1772 L 856 1772 L 856 1728 Z Z" stroke-miterlimit="10"></path></g><g transform="translate(-198,-142) scale(1,1)"><path fill="none" stroke="#000000" d="M 856 1753 L 979 1753" stroke-miterlimit="10"></path></g><g transform="translate(-198,-142) scale(1,1)"><path fill="none" stroke="#000000" d="M 856 1763 L 979 1763" stroke-miterlimit="10"></path></g><g transform="translate(-198,-142) scale(1,1)"><g><path fill="none" stroke="none"></path><text fill="#000000" stroke="none" font-family="Arial" font-size="13px" font-style="normal" font-weight="bold" text-decoration="none" x="865.5" y="1747.5">ShaderVec4Value</text></g></g><g transform="translate(-198,-142) scale(1,1)"><rect fill="#C0C0C0" stroke="none" x="1047" y="1703" width="123" height="44" opacity="0.2"></rect></g><g transform="translate(-198,-142) scale(1,1)"><rect fill="#ffffff" stroke="none" x="1040" y="1696" width="123" height="44"></rect></g><g transform="translate(-198,-142) scale(1,1)"><path fill="none" stroke="#000000" d="M 1040 1696 L 1163 1696 L 1163 1740 L 1040 1740 L 1040 1696 Z Z" stroke-miterlimit="10"></path></g><g transform="translate(-198,-142) scale(1,1)"><path fill="none" stroke="#000000" d="M 1040 1721 L 1163 1721" stroke-miterlimit="10"></path></g><g transform="translate(-198,-142) scale(1,1)"><path fill="none" stroke="#000000" d="M 1040 1731 L 1163 1731" stroke-miterlimit="10"></path></g><g transform="translate(-198,-142) scale(1,1)"><g><path fill="none" stroke="none"></path><text fill="#000000" stroke="none" font-family="Arial" font-size="13px" font-style="normal" font-weight="bold" text-decoration="none" x="1049.5" y="1715.5">ShaderVec3Value</text></g></g><g transform="translate(-198,-142) scale(1,1)"><rect fill="#C0C0C0" stroke="none" x="1199" y="1631" width="122" height="44" opacity="0.2"></rect></g><g transform="translate(-198,-142) scale(1,1)"><rect fill="#ffffff" stroke="none" x="1192" y="1624" width="122" height="44"></rect></g><g transform="translate(-198,-142) scale(1,1)"><path fill="none" stroke="#000000" d="M 1192 1624 L 1314 1624 L 1314 1668 L 1192 1668 L 1192 1624 Z Z" stroke-miterlimit="10"></path></g><g transform="translate(-198,-142) scale(1,1)"><path fill="none" stroke="#000000" d="M 1192 1649 L 1314 1649" stroke-miterlimit="10"></path></g><g transform="translate(-198,-142) scale(1,1)"><path fill="none" stroke="#000000" d="M 1192 1659 L 1314 1659" stroke-miterlimit="10"></path></g><g transform="translate(-198,-142) scale(1,1)"><g><path fill="none" stroke="none"></path><text fill="#000000" stroke="none" font-family="Arial" font-size="13px" font-style="normal" font-weight="bold" text-decoration="none" x="1201.5" y="1643.5">ShaderMat4Value</text></g></g><g transform="translate(-198,-142) scale(1,1)"><path fill="none" stroke="#000000" d="M 941 1727 L 1132 1541" stroke-miterlimit="10"></path></g><g transform="translate(-198,-142) scale(1,1)"><path fill="#FFFFFF" stroke="none" d="M 1123.3121615624013 1561.2119138945866 L 1132 1541 L 1111.5647891513001 1549.1487519025418"></path></g><g transform="translate(-198,-142) scale(1,1)"><path fill="none" stroke="#000000" d="M 1123.3121615624013 1561.2119138945866 L 1132 1541 L 1111.5647891513001 1549.1487519025418 L 1123.3121615624013 1561.2119138945866" stroke-miterlimit="10"></path></g><g transform="translate(-198,-142) scale(1,1)"><path fill="none" stroke="#000000" d="M 1107 1695 L 1150 1541" stroke-miterlimit="10"></path></g><g transform="translate(-198,-142) scale(1,1)"><path fill="#FFFFFF" stroke="none" d="M 1152.6426910893574 1562.8407001674907 L 1150 1541 L 1136.424957595571 1558.3123719841608"></path></g><g transform="translate(-198,-142) scale(1,1)"><path fill="none" stroke="#000000" d="M 1152.6426910893574 1562.8407001674907 L 1150 1541 L 1136.424957595571 1558.3123719841608 L 1152.6426910893574 1562.8407001674907" stroke-miterlimit="10"></path></g><g transform="translate(-198,-142) scale(1,1)"><path fill="none" stroke="#000000" d="M 1236 1623 L 1173 1541" stroke-miterlimit="10"></path></g><g transform="translate(-198,-142) scale(1,1)"><path fill="#FFFFFF" stroke="none" d="M 1192.0592382425934 1551.9884228901178 L 1173 1541 L 1178.7069282654402 1562.2469049457354"></path></g><g transform="translate(-198,-142) scale(1,1)"><path fill="none" stroke="#000000" d="M 1192.0592382425934 1551.9884228901178 L 1173 1541 L 1178.7069282654402 1562.2469049457354 L 1192.0592382425934 1551.9884228901178" stroke-miterlimit="10"></path></g><g transform="translate(-198,-142) scale(1,1)"><path fill="none" stroke="#000000" d="M 984 1393 L 1124 1495" stroke-miterlimit="10"></path></g><g transform="translate(-198,-142) scale(1,1)"><path fill="#FFFFFF" stroke="none" d="M 1102.6146939907144 1489.8358266015541 L 1124 1495 L 1112.529927132349 1476.2266830738206"></path></g><g transform="translate(-198,-142) scale(1,1)"><path fill="none" stroke="#000000" d="M 1102.6146939907144 1489.8358266015541 L 1124 1495 L 1112.529927132349 1476.2266830738206 L 1102.6146939907144 1489.8358266015541" stroke-miterlimit="10"></path></g><g transform="translate(-198,-142) scale(1,1)"><path fill="none" stroke="#000000" d="M 353 1543 L 352 1264 L 672 881" stroke-miterlimit="10"></path></g><g transform="translate(-198,-142) scale(1,1)"><path fill="#000000" stroke="none" d="M 668.7143868414961 891.4978448346633 L 672 881 L 662.2536233848316 886.0998179257007 L 657.8942759146869 897.8827885146092"></path></g><g transform="translate(-198,-142) scale(1,1)"><path fill="none" stroke="#000000" d="M 668.7143868414961 891.4978448346633 L 672 881 L 662.2536233848316 886.0998179257007 L 657.8942759146869 897.8827885146092 L 668.7143868414961 891.4978448346633" stroke-miterlimit="10"></path></g><g transform="translate(-198,-142) scale(1,1)"><rect fill="#C0C0C0" stroke="none" x="1103" y="463" width="111" height="70" opacity="0.2"></rect></g><g transform="translate(-198,-142) scale(1,1)"><rect fill="#ffffff" stroke="none" x="1096" y="456" width="111" height="70"></rect></g><g transform="translate(-198,-142) scale(1,1)"><path fill="none" stroke="#000000" d="M 1096 456 L 1207 456 L 1207 526 L 1096 526 L 1096 456 Z Z" stroke-miterlimit="10"></path></g><g transform="translate(-198,-142) scale(1,1)"><path fill="none" stroke="#000000" d="M 1096 494 L 1207 494" stroke-miterlimit="10"></path></g><g transform="translate(-198,-142) scale(1,1)"><path fill="none" stroke="#000000" d="M 1096 504 L 1207 504" stroke-miterlimit="10"></path></g><g transform="translate(-198,-142) scale(1,1)"><g><path fill="none" stroke="none"></path><text fill="#000000" stroke="none" font-family="Arial" font-size="13px" font-style="normal" font-weight="normal" text-decoration="none" x="1120" y="473.5">«interface»</text></g></g><g transform="translate(-198,-142) scale(1,1)"><g><path fill="none" stroke="none"></path><text fill="#000000" stroke="none" font-family="Arial" font-size="13px" font-style="normal" font-weight="bold" text-decoration="none" x="1105.5" y="488.5">ShaderParsable</text></g></g><g transform="translate(-198,-142) scale(1,1)"><g><path fill="none" stroke="none"></path><text fill="#000000" stroke="none" font-family="Arial" font-size="13px" font-style="normal" font-weight="normal" text-decoration="none" x="1101" y="521.5">+parse()</text></g></g><g transform="translate(-198,-142) scale(1,1)"><path fill="none" stroke="#000000" d="M 473 1351 L 208 1152 L 208 584 L 1048 584 L 1111 527" stroke-miterlimit="10"></path></g><g transform="translate(-198,-142) scale(1,1)"><path fill="#FFFFFF" stroke="none" d="M 1101.5764690629317 546.8795639961775 L 1111 527 L 1090.2795828629487 534.3935318804068"></path></g><g transform="translate(-198,-142) scale(1,1)"><path fill="none" stroke="#000000" d="M 1101.5764690629317 546.8795639961775 L 1111 527 L 1090.2795828629487 534.3935318804068 L 1101.5764690629317 546.8795639961775" stroke-miterlimit="10"></path></g><g transform="translate(-198,-142) scale(1,1)"><path fill="none" stroke="#000000" d="M 1243 1303 L 1632 1104 L 1632 488 L 1208 491" stroke-miterlimit="10"></path></g><g transform="translate(-198,-142) scale(1,1)"><path fill="#FFFFFF" stroke="none" d="M 1228.265273811 482.4373673811615 L 1208 491 L 1228.3844081239502 499.2750169447704"></path></g><g transform="translate(-198,-142) scale(1,1)"><path fill="none" stroke="#000000" d="M 1228.265273811 482.4373673811615 L 1208 491 L 1228.3844081239502 499.2750169447704 L 1228.265273811 482.4373673811615" stroke-miterlimit="10"></path></g><g transform="translate(-198,-142) scale(1,1)"><rect fill="#C0C0C0" stroke="none" x="1143" y="1311" width="124" height="44" opacity="0.2"></rect></g><g transform="translate(-198,-142) scale(1,1)"><rect fill="#ffffff" stroke="none" x="1136" y="1304" width="124" height="44"></rect></g><g transform="translate(-198,-142) scale(1,1)"><path fill="none" stroke="#000000" d="M 1136 1304 L 1260 1304 L 1260 1348 L 1136 1348 L 1136 1304 Z Z" stroke-miterlimit="10"></path></g><g transform="translate(-198,-142) scale(1,1)"><path fill="none" stroke="#000000" d="M 1136 1329 L 1260 1329" stroke-miterlimit="10"></path></g><g transform="translate(-198,-142) scale(1,1)"><path fill="none" stroke="#000000" d="M 1136 1339 L 1260 1339" stroke-miterlimit="10"></path></g><g transform="translate(-198,-142) scale(1,1)"><g><path fill="none" stroke="none"></path><text fill="#000000" stroke="none" font-family="Arial" font-size="13px" font-style="normal" font-weight="bold" text-decoration="none" x="1145" y="1323.5">ShaderExpression</text></g></g><g transform="translate(-198,-142) scale(1,1)"><path fill="none" stroke="#000000" d="M 1161 1495 L 1193 1349" stroke-miterlimit="10"></path></g><g transform="translate(-198,-142) scale(1,1)"><path fill="#FFFFFF" stroke="none" d="M 1196.8722458415066 1370.656539708433 L 1193 1349 L 1180.424605208082 1367.0515773778193"></path></g><g transform="translate(-198,-142) scale(1,1)"><path fill="none" stroke="#000000" d="M 1196.8722458415066 1370.656539708433 L 1193 1349 L 1180.424605208082 1367.0515773778193 L 1196.8722458415066 1370.656539708433" stroke-miterlimit="10"></path></g><g transform="translate(-198,-142) scale(1,1)"><path fill="none" stroke="#000000" d="M 1344 1391 L 1250 1349" stroke-miterlimit="10"></path></g><g transform="translate(-198,-142) scale(1,1)"><path fill="#FFFFFF" stroke="none" d="M 1271.9916832066933 1349.6048716694038 L 1250 1349 L 1265.122759465976 1364.978177184342"></path></g><g transform="translate(-198,-142) scale(1,1)"><path fill="none" stroke="#000000" d="M 1271.9916832066933 1349.6048716694038 L 1250 1349 L 1265.122759465976 1364.978177184342 L 1271.9916832066933 1349.6048716694038" stroke-miterlimit="10"></path></g><g transform="translate(-198,-142) scale(1,1)"><rect fill="#C0C0C0" stroke="none" x="839" y="839" width="227" height="100" opacity="0.2"></rect></g><g transform="translate(-198,-142) scale(1,1)"><rect fill="#ffffff" stroke="none" x="832" y="832" width="227" height="100"></rect></g><g transform="translate(-198,-142) scale(1,1)"><path fill="none" stroke="#000000" d="M 832 832 L 1059 832 L 1059 932 L 832 932 L 832 832 Z Z" stroke-miterlimit="10"></path></g><g transform="translate(-198,-142) scale(1,1)"><path fill="none" stroke="#000000" d="M 832 857 L 1059 857" stroke-miterlimit="10"></path></g><g transform="translate(-198,-142) scale(1,1)"><path fill="none" stroke="#000000" d="M 832 895 L 1059 895" stroke-miterlimit="10"></path></g><g transform="translate(-198,-142) scale(1,1)"><g><path fill="none" stroke="none"></path><text fill="#000000" stroke="none" font-family="Arial" font-size="13px" font-style="normal" font-weight="bold" text-decoration="none" x="922" y="851.5">ShaderIf</text></g></g><g transform="translate(-198,-142) scale(1,1)"><g><path fill="none" stroke="none"></path><text fill="#000000" stroke="none" font-family="Arial" font-size="13px" font-style="normal" font-weight="normal" text-decoration="none" x="837" y="874.5">-next: ShaderElseOrElseIf</text></g></g><g transform="translate(-198,-142) scale(1,1)"><g><path fill="none" stroke="none"></path><text fill="#000000" stroke="none" font-family="Arial" font-size="13px" font-style="normal" font-weight="normal" text-decoration="none" x="837" y="889.5">-hasNext: boolean</text></g></g><g transform="translate(-198,-142) scale(1,1)"><g><path fill="none" stroke="none"></path><text fill="#000000" stroke="none" font-family="Arial" font-size="13px" font-style="normal" font-weight="normal" text-decoration="none" x="837" y="912.5">+elseIf(): ShaderElseIf</text></g></g><g transform="translate(-198,-142) scale(1,1)"><g><path fill="none" stroke="none"></path><text fill="#000000" stroke="none" font-family="Arial" font-size="13px" font-style="normal" font-weight="normal" text-decoration="none" x="837" y="927.5">+else(): ShaderElse</text></g></g><g transform="translate(-198,-142) scale(1,1)"><path fill="none" stroke="#000000" d="M 1010 831 L 1121 745" stroke-miterlimit="10"></path></g><g transform="translate(-198,-142) scale(1,1)"><path fill="#FFFFFF" stroke="none" d="M 1110.089111746919 764.1037304610586 L 1121 745 L 1099.7764595725032 750.7932142824523"></path></g><g transform="translate(-198,-142) scale(1,1)"><path fill="none" stroke="#000000" d="M 1110.089111746919 764.1037304610586 L 1121 745 L 1099.7764595725032 750.7932142824523 L 1110.089111746919 764.1037304610586" stroke-miterlimit="10"></path></g><g transform="translate(-198,-142) scale(1,1)"><rect fill="#C0C0C0" stroke="none" x="1255" y="855" width="120" height="88" opacity="0.2"></rect></g><g transform="translate(-198,-142) scale(1,1)"><rect fill="#ffffff" stroke="none" x="1248" y="848" width="120" height="88"></rect></g><g transform="translate(-198,-142) scale(1,1)"><path fill="none" stroke="#000000" d="M 1248 848 L 1368 848 L 1368 936 L 1248 936 L 1248 848 Z Z" stroke-miterlimit="10"></path></g><g transform="translate(-198,-142) scale(1,1)"><path fill="none" stroke="#000000" d="M 1248 873 L 1368 873" stroke-miterlimit="10"></path></g><g transform="translate(-198,-142) scale(1,1)"><path fill="none" stroke="#000000" d="M 1248 883 L 1368 883" stroke-miterlimit="10"></path></g><g transform="translate(-198,-142) scale(1,1)"><g><path fill="none" stroke="none"></path><text fill="#000000" stroke="none" font-family="Arial" font-size="13px" font-style="normal" font-weight="bold" text-decoration="none" x="1278" y="867.5">ShaderFor</text></g></g><g transform="translate(-198,-142) scale(1,1)"><rect fill="#C0C0C0" stroke="none" x="1415" y="855" width="120" height="80" opacity="0.2"></rect></g><g transform="translate(-198,-142) scale(1,1)"><rect fill="#ffffff" stroke="none" x="1408" y="848" width="120" height="80"></rect></g><g transform="translate(-198,-142) scale(1,1)"><path fill="none" stroke="#000000" d="M 1408 848 L 1528 848 L 1528 928 L 1408 928 L 1408 848 Z Z" stroke-miterlimit="10"></path></g><g transform="translate(-198,-142) scale(1,1)"><path fill="none" stroke="#000000" d="M 1408 873 L 1528 873" stroke-miterlimit="10"></path></g><g transform="translate(-198,-142) scale(1,1)"><path fill="none" stroke="#000000" d="M 1408 883 L 1528 883" stroke-miterlimit="10"></path></g><g transform="translate(-198,-142) scale(1,1)"><g><path fill="none" stroke="none"></path><text fill="#000000" stroke="none" font-family="Arial" font-size="13px" font-style="normal" font-weight="bold" text-decoration="none" x="1431" y="867.5">ShaderWhile</text></g></g><g transform="translate(-198,-142) scale(1,1)"><path fill="none" stroke="#000000" d="M 1284 847 L 1231 745" stroke-miterlimit="10"></path></g><g transform="translate(-198,-142) scale(1,1)"><path fill="#FFFFFF" stroke="none" d="M 1247.8422963918854 759.1540472038173 L 1231 745 L 1232.900879230402 766.9177247485095"></path></g><g transform="translate(-198,-142) scale(1,1)"><path fill="none" stroke="#000000" d="M 1247.8422963918854 759.1540472038173 L 1231 745 L 1232.900879230402 766.9177247485095 L 1247.8422963918854 759.1540472038173" stroke-miterlimit="10"></path></g><g transform="translate(-198,-142) scale(1,1)"><path fill="none" stroke="#000000" d="M 1414 847 L 1279 745" stroke-miterlimit="10"></path></g><g transform="translate(-198,-142) scale(1,1)"><path fill="#FFFFFF" stroke="none" d="M 1300.292205570771 750.5355200236314 L 1279 745 L 1290.1416591994066 763.970066691614"></path></g><g transform="translate(-198,-142) scale(1,1)"><path fill="none" stroke="#000000" d="M 1300.292205570771 750.5355200236314 L 1279 745 L 1290.1416591994066 763.970066691614 L 1300.292205570771 750.5355200236314" stroke-miterlimit="10"></path></g><g transform="translate(-198,-142) scale(1,1)"><rect fill="#C0C0C0" stroke="none" x="1015" y="991" width="96" height="44" opacity="0.2"></rect></g><g transform="translate(-198,-142) scale(1,1)"><rect fill="#ffffff" stroke="none" x="1008" y="984" width="96" height="44"></rect></g><g transform="translate(-198,-142) scale(1,1)"><path fill="none" stroke="#000000" d="M 1008 984 L 1104 984 L 1104 1028 L 1008 1028 L 1008 984 Z Z" stroke-miterlimit="10"></path></g><g transform="translate(-198,-142) scale(1,1)"><path fill="none" stroke="#000000" d="M 1008 1009 L 1104 1009" stroke-miterlimit="10"></path></g><g transform="translate(-198,-142) scale(1,1)"><path fill="none" stroke="#000000" d="M 1008 1019 L 1104 1019" stroke-miterlimit="10"></path></g><g transform="translate(-198,-142) scale(1,1)"><g><path fill="none" stroke="none"></path><text fill="#000000" stroke="none" font-family="Arial" font-size="13px" font-style="normal" font-weight="bold" text-decoration="none" x="1019.5" y="1003.5">ShaderElseIf</text></g></g><g transform="translate(-198,-142) scale(1,1)"><rect fill="#C0C0C0" stroke="none" x="1199" y="991" width="81" height="44" opacity="0.2"></rect></g><g transform="translate(-198,-142) scale(1,1)"><rect fill="#ffffff" stroke="none" x="1192" y="984" width="81" height="44"></rect></g><g transform="translate(-198,-142) scale(1,1)"><path fill="none" stroke="#000000" d="M 1192 984 L 1273 984 L 1273 1028 L 1192 1028 L 1192 984 Z Z" stroke-miterlimit="10"></path></g><g transform="translate(-198,-142) scale(1,1)"><path fill="none" stroke="#000000" d="M 1192 1009 L 1273 1009" stroke-miterlimit="10"></path></g><g transform="translate(-198,-142) scale(1,1)"><path fill="none" stroke="#000000" d="M 1192 1019 L 1273 1019" stroke-miterlimit="10"></path></g><g transform="translate(-198,-142) scale(1,1)"><g><path fill="none" stroke="none"></path><text fill="#000000" stroke="none" font-family="Arial" font-size="13px" font-style="normal" font-weight="bold" text-decoration="none" x="1199" y="1003.5">ShaderElse</text></g></g><g transform="translate(-198,-142) scale(1,1)"><path fill="none" stroke="#000000" d="M 1215 983 L 1159 906" stroke-miterlimit="10"></path></g><g transform="translate(-198,-142) scale(1,1)"><path fill="#FFFFFF" stroke="none" d="M 1177.763573261467 917.4860053309045 L 1159 906 L 1164.1460176342464 927.3896821507012"></path></g><g transform="translate(-198,-142) scale(1,1)"><path fill="none" stroke="#000000" d="M 1177.763573261467 917.4860053309045 L 1159 906 L 1164.1460176342464 927.3896821507012 L 1177.763573261467 917.4860053309045" stroke-miterlimit="10"></path></g><g transform="translate(-198,-142) scale(1,1)"><rect fill="#C0C0C0" stroke="none" x="1079" y="855" width="130" height="57" opacity="0.2"></rect></g><g transform="translate(-198,-142) scale(1,1)"><rect fill="#ffffff" stroke="none" x="1072" y="848" width="130" height="57"></rect></g><g transform="translate(-198,-142) scale(1,1)"><path fill="none" stroke="#000000" d="M 1072 848 L 1202 848 L 1202 905 L 1072 905 L 1072 848 Z Z" stroke-miterlimit="10"></path></g><g transform="translate(-198,-142) scale(1,1)"><path fill="none" stroke="#000000" d="M 1072 886 L 1202 886" stroke-miterlimit="10"></path></g><g transform="translate(-198,-142) scale(1,1)"><path fill="none" stroke="#000000" d="M 1072 896 L 1202 896" stroke-miterlimit="10"></path></g><g transform="translate(-198,-142) scale(1,1)"><g><path fill="none" stroke="none"></path><text fill="#000000" stroke="none" font-family="Arial" font-size="13px" font-style="normal" font-weight="normal" text-decoration="none" x="1105.5" y="865.5">«interface»</text></g></g><g transform="translate(-198,-142) scale(1,1)"><g><path fill="none" stroke="none"></path><text fill="#000000" stroke="none" font-family="Arial" font-size="13px" font-style="normal" font-weight="bold" text-decoration="none" x="1080.5" y="880.5">ShaderElseOrElseIf</text></g></g><g transform="translate(-198,-142) scale(1,1)"><path fill="none" stroke="#000000" d="M 1035 983 L 991 933" stroke-miterlimit="10"></path></g><g transform="translate(-198,-142) scale(1,1)"><path fill="#FFFFFF" stroke="none" d="M 1010.7477767536637 942.6966650600841 L 991 933 L 998.1072092369936 953.8203644747539"></path></g><g transform="translate(-198,-142) scale(1,1)"><path fill="none" stroke="#000000" d="M 1010.7477767536637 942.6966650600841 L 991 933 L 998.1072092369936 953.8203644747539 L 1010.7477767536637 942.6966650600841" stroke-miterlimit="10"></path></g><g transform="translate(-198,-142) scale(1,1)"><path fill="none" stroke="#000000" d="M 1070 983 L 1118 906" stroke-miterlimit="10"></path></g><g transform="translate(-198,-142) scale(1,1)"><path fill="#FFFFFF" stroke="none" d="M 1114.3922645561756 927.7021714343836 L 1118 906 L 1100.103193215219 918.7946983906704"></path></g><g transform="translate(-198,-142) scale(1,1)"><path fill="none" stroke="#000000" d="M 1114.3922645561756 927.7021714343836 L 1118 906 L 1100.103193215219 918.7946983906704 L 1114.3922645561756 927.7021714343836" stroke-miterlimit="10"></path></g><g transform="translate(-198,-142) scale(1,1)"><path fill="none" stroke="#000000" d="M 913 483 L 1095 489" stroke-miterlimit="10"></path></g><g transform="translate(-198,-142) scale(1,1)"><path fill="#FFFFFF" stroke="none" d="M 1074.4082864220472 496.7447615795166 L 1095 489 L 1074.9630862612294 479.9158331243277"></path></g><g transform="translate(-198,-142) scale(1,1)"><path fill="none" stroke="#000000" d="M 1074.4082864220472 496.7447615795166 L 1095 489 L 1074.9630862612294 479.9158331243277 L 1074.4082864220472 496.7447615795166" stroke-miterlimit="10"></path></g><g transform="translate(-198,-142) scale(1,1)"><path fill="none" stroke="#000000" d="M 933 289 L 1112 455" stroke-miterlimit="10"></path></g><g transform="translate(-198,-142) scale(1,1)"><path fill="#FFFFFF" stroke="none" d="M 1091.3720505717831 447.35227469197997 L 1112 455 L 1102.8215955032877 435.0060786513818"></path></g><g transform="translate(-198,-142) scale(1,1)"><path fill="none" stroke="#000000" d="M 1091.3720505717831 447.35227469197997 L 1112 455 L 1102.8215955032877 435.0060786513818 L 1091.3720505717831 447.35227469197997" stroke-miterlimit="10"></path></g><g transform="translate(-198,-142) scale(1,1)"><path fill="none" stroke="#000000" d="M 1230 983 L 1205 745" stroke-miterlimit="10"></path></g><g transform="translate(-198,-142) scale(1,1)"><path fill="#FFFFFF" stroke="none" d="M 1215.4963029113746 764.334622447637 L 1205 745 L 1198.7503643216153 766.0936496104268"></path></g><g transform="translate(-198,-142) scale(1,1)"><path fill="none" stroke="#000000" d="M 1215.4963029113746 764.334622447637 L 1205 745 L 1198.7503643216153 766.0936496104268 L 1215.4963029113746 764.334622447637" stroke-miterlimit="10"></path></g></g></svg>